<svg xmlns="http://www.w3.org/2000/svg" xmlns:xlink="http://www.w3.org/1999/xlink" viewBox="0 0 668.93 668.98"><defs><style>.cls-1{fill:#42c6bf;}.cls-2{fill:#58a8a0;}.cls-3{fill:#317e84;}.cls-4{fill:#1a6168;}.cls-5{fill:#356f8c;}.cls-6{fill:#244d7f;}.cls-7{fill:#042c5b;}.cls-8{fill:#6cefe2;}.cls-9{fill:#4442a6;}.cls-10,.cls-14{stroke-miterlimit:10;}.cls-10{stroke-width:0.61px;fill:url(#Degradado_sin_nombre_226);stroke:url(#Degradado_sin_nombre_227);}.cls-11{fill:url(#Degradado_sin_nombre_120);}.cls-12,.cls-16{opacity:0.36;}.cls-12{fill:url(#Degradado_sin_nombre_9);}.cls-13{fill:#ccc;opacity:0.19;}.cls-14{stroke-width:0.69px;fill:url(#Degradado_sin_nombre_349);stroke:url(#Degradado_sin_nombre_312);}.cls-15{fill:url(#Degradado_sin_nombre_238);}.cls-16{fill:url(#Degradado_sin_nombre_9-2);}.cls-17,.cls-19,.cls-25,.cls-27,.cls-29,.cls-39,.cls-47,.cls-56,.cls-60{fill:#f9f9f9;}.cls-18{fill:#fcfcfc;}.cls-19{font-size:22.04px;}.cls-19,.cls-25,.cls-27,.cls-29,.cls-39,.cls-47,.cls-56,.cls-60{font-family:Montserrat-Regular, Montserrat;}.cls-20{letter-spacing:-0.02em;}.cls-21{letter-spacing:0em;}.cls-22{letter-spacing:-0.01em;}.cls-23{letter-spacing:-0.01em;}.cls-24{letter-spacing:0em;}.cls-25{font-size:27.63px;}.cls-26{letter-spacing:-0.01em;}.cls-27{font-size:26.35px;}.cls-28{letter-spacing:0em;}.cls-29{font-size:20.07px;}.cls-30{letter-spacing:-0.05em;}.cls-31{letter-spacing:0em;}.cls-32{letter-spacing:0.02em;}.cls-33{letter-spacing:-0.01em;}.cls-34{letter-spacing:0em;}.cls-35{letter-spacing:-0.02em;}.cls-36{letter-spacing:-0.01em;}.cls-37{letter-spacing:-0.01em;}.cls-38{letter-spacing:0em;}.cls-39{font-size:16.79px;}.cls-40{letter-spacing:-0.05em;}.cls-41{letter-spacing:0em;}.cls-42{letter-spacing:0em;}.cls-43{letter-spacing:-0.02em;}.cls-44{letter-spacing:0em;}.cls-45{letter-spacing:-0.01em;}.cls-46{letter-spacing:0em;}.cls-47{font-size:14.64px;}.cls-48{letter-spacing:-0.01em;}.cls-49{letter-spacing:-0.02em;}.cls-50{letter-spacing:-0.01em;}.cls-51{letter-spacing:0em;}.cls-52{letter-spacing:0em;}.cls-53{letter-spacing:-0.01em;}.cls-54{letter-spacing:-0.01em;}.cls-55{letter-spacing:-0.02em;}.cls-56{font-size:24.77px;}.cls-57{letter-spacing:-0.02em;}.cls-58{letter-spacing:-0.01em;}.cls-59{letter-spacing:0.01em;}.cls-60{font-size:16.26px;}.cls-61{letter-spacing:-0.01em;}.cls-62{letter-spacing:0em;}.cls-63{letter-spacing:-0.01em;}</style><linearGradient id="Degradado_sin_nombre_226" x1="525.95" y1="332.58" x2="539.98" y2="391.92" gradientTransform="matrix(-1, 0, 0, 1, 834.32, 0)" gradientUnits="userSpaceOnUse"><stop offset="0" stop-color="#008a94"/><stop offset="0.17" stop-color="#028f92"/><stop offset="0.38" stop-color="#089e8c"/><stop offset="0.61" stop-color="#12b783"/><stop offset="0.86" stop-color="#21d976"/><stop offset="0.97" stop-color="#28eb6f"/></linearGradient><linearGradient id="Degradado_sin_nombre_227" x1="488.25" y1="370.62" x2="550.66" y2="318.26" gradientTransform="matrix(-1, 0, 0, 1, 834.32, 0)" gradientUnits="userSpaceOnUse"><stop offset="0" stop-color="#008a94"/><stop offset="0.14" stop-color="#028e93" stop-opacity="0.97"/><stop offset="0.31" stop-color="#06988f" stop-opacity="0.87"/><stop offset="0.5" stop-color="#0daa88" stop-opacity="0.71"/><stop offset="0.7" stop-color="#17c27f" stop-opacity="0.48"/><stop offset="0.91" stop-color="#24e173" stop-opacity="0.19"/><stop offset="0.97" stop-color="#28eb6f" stop-opacity="0.1"/></linearGradient><linearGradient id="Degradado_sin_nombre_120" x1="545.11" y1="409.81" x2="523.28" y2="276.49" gradientTransform="matrix(-1, 0, 0, 1, 834.32, 0)" gradientUnits="userSpaceOnUse"><stop offset="0" stop-color="#0b516b"/><stop offset="0.16" stop-color="#0e566d"/><stop offset="0.35" stop-color="#156571"/><stop offset="0.56" stop-color="#227e78"/><stop offset="0.78" stop-color="#34a083"/><stop offset="0.97" stop-color="#46c28d"/></linearGradient><linearGradient id="Degradado_sin_nombre_9" x1="306.46" y1="392.93" x2="269.8" y2="280.23" gradientTransform="translate(13.25)" gradientUnits="userSpaceOnUse"><stop offset="0" stop-color="#0b516b"/><stop offset="0.19" stop-color="#0d556c"/><stop offset="0.37" stop-color="#146170"/><stop offset="0.57" stop-color="#1e7676"/><stop offset="0.76" stop-color="#2d927f"/><stop offset="0.95" stop-color="#40b78a"/><stop offset="1" stop-color="#46c28d"/></linearGradient><linearGradient id="Degradado_sin_nombre_349" x1="338.63" y1="272.65" x2="362.57" y2="299.18" gradientTransform="translate(5.43)" gradientUnits="userSpaceOnUse"><stop offset="0" stop-color="#454545"/><stop offset="0.51" stop-color="#434343"/><stop offset="0.69" stop-color="#3c3d3d"/><stop offset="0.82" stop-color="#313132"/><stop offset="0.93" stop-color="#202123"/><stop offset="1" stop-color="#0f1113"/></linearGradient><linearGradient id="Degradado_sin_nombre_312" x1="323.14" y1="319.75" x2="407.92" y2="319.75" gradientTransform="translate(5.43)" gradientUnits="userSpaceOnUse"><stop offset="0" stop-color="#707070" stop-opacity="0.05"/><stop offset="1" stop-color="#0d433e" stop-opacity="0.05"/></linearGradient><linearGradient id="Degradado_sin_nombre_238" x1="1527.63" y1="306.04" x2="1527.63" y2="376.18" gradientTransform="matrix(-1, 0, 0, 1, 1914.18, 0)" gradientUnits="userSpaceOnUse"><stop offset="0" stop-color="#008a94"/><stop offset="0.17" stop-color="#039191"/><stop offset="0.42" stop-color="#0ba689"/><stop offset="0.73" stop-color="#19c77d"/><stop offset="1" stop-color="#28eb6f"/></linearGradient><linearGradient id="Degradado_sin_nombre_9-2" x1="1528.23" y1="291.08" x2="1528.23" y2="329.71" gradientTransform="matrix(-1, 0, 0, 1, 1914.18, 0)" xlink:href="#Degradado_sin_nombre_9"/></defs><title>de_cet_circle_1</title><g id="Layer_2" data-name="Layer 2"><g id="form"><path class="cls-1" d="M335.29,0l26.46,99.07L336.4,192a142.53,142.53,0,0,1,36.35,5.19l16.93-18.75a164.92,164.92,0,0,1,17.22,7.07L405.6,211a142.77,142.77,0,0,1,17.82,12.16L507,175.39,558.6,86.17A333.25,333.25,0,0,0,335.29,0Z"/><path class="cls-2" d="M570.85,97.79,519,187.41l-82.79,47.31a143.07,143.07,0,0,1,22.3,29.59L484.74,263a164.94,164.94,0,0,1,7.06,16.91L472.17,297.6a142,142,0,0,1,4.43,26.1l94.57,25.79,97.63-26.08A333.4,333.4,0,0,0,570.85,97.79Z"/><path class="cls-3" d="M571.17,366.49l-94.31-25.72A142.32,142.32,0,0,1,472,372.1l20,18.08a164.92,164.92,0,0,1-6.91,16.75L458,405.54a142.87,142.87,0,0,1-16.2,22.68L490,512.56l88.19,51a333.27,333.27,0,0,0,90.71-223.2Z"/><path class="cls-4" d="M478,524.58l-48.13-84.22A142.87,142.87,0,0,1,405.55,458l1.38,27.08A164.92,164.92,0,0,1,390.19,492L372.1,472A141.9,141.9,0,0,1,350.89,476l-26.14,95.86,25.83,96.69a333.3,333.3,0,0,0,215.71-93Z"/><path class="cls-5" d="M333.64,477a142.64,142.64,0,0,1-36-4.82l-17.72,19.63A164.93,164.93,0,0,1,263,484.73l1.34-26.21a142.79,142.79,0,0,1-18.73-12.68l-87.07,49.76-49.64,85.82A333.27,333.27,0,0,0,333.68,669l-25.93-97.07Z"/><path class="cls-6" d="M185.53,406.89a164.9,164.9,0,0,1-7.07-17.22l18.75-16.93a141.65,141.65,0,0,1-3.67-17.29l-95.21-26L.68,355.57a333.36,333.36,0,0,0,96,214.12l49.81-86.12,86.29-49.31A143,143,0,0,1,211,405.59Z"/><path class="cls-7" d="M192,334.49a142.56,142.56,0,0,1,5-37.54l-18.35-16.56A164.93,164.93,0,0,1,185.88,263l24.61,1.26a142.79,142.79,0,0,1,8.79-13.62L151,182.94l-67.88-69A333.2,333.2,0,0,0,0,334.49c0,1.42,0,2.83.05,4.25l98.28-26.25L192,338Q192,336.27,192,334.49Z"/><path class="cls-8" d="M264.27,210.49,263,185.87a164.93,164.93,0,0,1,17.38-7.23L297,197a141.9,141.9,0,0,1,22.23-4.19l25.56-93.74L318.39.38A333.45,333.45,0,0,0,94.49,101.53L161,170l69.46,67.14A143.1,143.1,0,0,1,264.27,210.49Z"/><path class="cls-9" d="M475.67,268,446,269.48a129,129,0,0,0-44.51-44.64l1.49-29.24A154.12,154.12,0,0,0,386.84,189l-19.53,21.63a129.26,129.26,0,0,0-63.29-.06l-19.3-21.38a154.13,154.13,0,0,0-16.24,6.75l1.47,28.74a129,129,0,0,0-44.8,44.8L196.4,268a154.13,154.13,0,0,0-6.75,16.24L211,303.55a129.26,129.26,0,0,0,.06,63.29l-21.63,19.53a154.1,154.1,0,0,0,6.61,16.09L225.31,401A129,129,0,0,0,270,445.49l-1.52,29.72a154.12,154.12,0,0,0,15.8,6.6l20-22.17a129.2,129.2,0,0,0,62.84-.06L387.32,482A154.12,154.12,0,0,0,403,475.53l-1.54-30.22A129.05,129.05,0,0,0,445.78,401L476,402.5a154.12,154.12,0,0,0,6.46-15.65L460,366.62a129.2,129.2,0,0,0,.06-62.84l22.17-20A154.12,154.12,0,0,0,475.67,268Z"/></g><g id="Logo"><g id="logo_ut"><path class="cls-10" d="M329.24,299.59V349.5c0,16.67-14.83,25.54-25.54,25.54s-25.54-8.88-25.54-25.54H258c0,28.23,23.72,45.7,45.7,45.7s45.7-17.47,45.7-45.7V299.59Z"/><path class="cls-11" d="M278.16,299.59V349.5h0v.45c0,17.66,12.3,33.25,29.64,36.55,14.88,2.83,26.89-2.67,35-13.23,0,0-12.14,21.94-39.09,21.94-22,0-45.7-17.47-45.7-45.7h0V310.64a11.05,11.05,0,0,1,11.05-11.05Z"/><path class="cls-12" d="M342.79,373.26c-8,10.46-19.89,16-34.58,13.3-14.89-2.69-26.12-14.44-29.21-28.83-.55-2.59,3.08,18.9,26.41,25.44A37,37,0,0,0,342.79,373.26Z"/><path class="cls-13" d="M332.8,296.87v49.51c0,16.53-14.71,25.34-25.34,25.34s-25.34-8.8-25.34-25.34h0V296.87h-8.95a11.05,11.05,0,0,0-11.05,11.05v38.46h0a46.34,46.34,0,0,0,1.63,12.32,43.52,43.52,0,0,0,9.77,17.75q1.48,1.63,3.09,3.1.81.73,1.65,1.43a47.39,47.39,0,0,0,12.92,7.59q1,.39,2,.73a44.53,44.53,0,0,0,14.29,2.42q1,0,2.08-.05a44.7,44.7,0,0,0,29.85-13.15,44,44,0,0,0,13.41-32.14V296.87Z"/><path class="cls-14" d="M381.8,366.69H360.11V291.46h-31.2V272.8H413v10.28a8.37,8.37,0,0,1-8.37,8.37H381.8Z"/><path class="cls-15" d="M381.8,366.69H360.11V324.48c0-30.93,20.69-51.68,51.68-51.68H413v10.28a8.37,8.37,0,0,1-8.37,8.37H381.8Z"/><path class="cls-16" d="M360.11,324.48c0-15.15,4.74-29.11,15.82-39,10.06-9,22.08-12.55,35.23-12.71h.63a47.58,47.58,0,0,0-33.56,13.52A58,58,0,0,0,364.52,306C360,316.36,360.11,324.48,360.11,324.48Z"/><path class="cls-13" d="M410.55,274.75H326.78V294h31.07v75.34h21.64V294h22.7a8.37,8.37,0,0,0,8.37-8.37Z"/></g></g><g id="Icons"><path class="cls-17" d="M588.27,460.56a1.47,1.47,0,0,0,1.47-1.47v-4.63a3.21,3.21,0,0,0-3.2-3.21h-31a1.47,1.47,0,0,0-1,.43l-12.14,12.14a1.47,1.47,0,0,0-.43,1v43.92a3.21,3.21,0,0,0,3.21,3.21h41.41a3.21,3.21,0,0,0,3.2-3.21V486.4a1.47,1.47,0,1,0-2.93,0v22.38a.27.27,0,0,1-.27.27H545.11a.27.27,0,0,1-.27-.27V466.33h8.94a3.21,3.21,0,0,0,3.2-3.2v-8.94h29.54a.27.27,0,0,1,.27.27v4.63A1.47,1.47,0,0,0,588.27,460.56Zm-34.22,2.57a.27.27,0,0,1-.27.27h-6.87l7.14-7.14Z"/><path class="cls-17" d="M599.55,463.17l-1.72-1.72a5,5,0,0,0-7,0l-13.69,13.69H553.37a1.47,1.47,0,1,0,0,2.93h20.82l-8.82,8.82h-12a1.47,1.47,0,0,0,0,2.93h9.06l0,0a1.47,1.47,0,0,0-.38.64l-2.26,8.15h-6.4a1.47,1.47,0,1,0,0,2.93h7.51l.37,0L570.5,499a1.47,1.47,0,0,0,.64-.38l28.4-28.4A5,5,0,0,0,599.55,463.17ZM563,498l1.2-4.31,3.11,3.11Zm7.12-2.53-4.59-4.59L589,467.44l4.59,4.59Zm27.36-27.36L595.63,470,591,465.36l1.85-1.85a2,2,0,0,1,2.87,0l1.72,1.72A2,2,0,0,1,597.48,468.11Z"/><g id="Capa_6" data-name="Capa 6"><path class="cls-17" d="M211,54.64h-5.2a1.44,1.44,0,0,0,0,2.89H211a1.44,1.44,0,1,0,0-2.89Z"/><path class="cls-17" d="M262.56,54.64h-5.2a1.44,1.44,0,0,0,0,2.89h5.2a1.44,1.44,0,0,0,0-2.89Z"/><path class="cls-17" d="M217,73.31a1.44,1.44,0,0,0-2,0l-3.78,3.78a1.44,1.44,0,1,0,2,2L217,75.36A1.44,1.44,0,0,0,217,73.31Z"/><path class="cls-17" d="M254.58,35.69a1.44,1.44,0,0,0-2,0l-3.68,3.68a1.44,1.44,0,0,0,2,2l3.68-3.68A1.44,1.44,0,0,0,254.58,35.69Z"/><path class="cls-17" d="M219.5,39.36l-3.68-3.68a1.44,1.44,0,1,0-2,2l3.68,3.68a1.44,1.44,0,0,0,2-2Z"/><path class="cls-17" d="M257.23,77.1l-3.77-3.77a1.44,1.44,0,0,0-2,2l3.77,3.77a1.44,1.44,0,1,0,2-2Z"/><path class="cls-17" d="M234.18,39.19c-10,0-18.12,8.5-18.12,19a25.41,25.41,0,0,0,4.77,14.35A18.18,18.18,0,0,1,224.4,83V92.1A2.89,2.89,0,0,0,227.29,95h13.78A2.89,2.89,0,0,0,244,92.1V83a18.18,18.18,0,0,1,3.56-10.53,25.41,25.41,0,0,0,4.77-14.35C252.3,47.69,244.17,39.19,234.18,39.19Zm6.89,52.91H227.29V90.21h6.89a1.44,1.44,0,1,0,0-2.89h-6.89V85.43h13.78V92.1Zm-8.92-27L230.22,61h7.92l-1.93,4.13a1.45,1.45,0,0,0-.13.52L235,82.54h-1.55l-1.12-16.88A1.45,1.45,0,0,0,232.15,65.14Zm13,5.67a21.16,21.16,0,0,0-4.09,11.73h-3.23l1.09-16.42,2.78-5.94a1.44,1.44,0,0,0-1.31-2.06H228a1.44,1.44,0,0,0-1.31,2.06l2.78,5.94,1.09,16.42h-3.23a21.15,21.15,0,0,0-4.09-11.73A22.78,22.78,0,0,1,219,58.14c0-8.86,6.83-16.06,15.23-16.06s15.23,7.21,15.23,16.06A22.78,22.78,0,0,1,245.17,70.81Z"/></g><path class="cls-17" d="M431.86,82.86c-.47-.77-1-1.56-1.44-2.34a20.61,20.61,0,0,0,2.25-4.24l2.74-.12a3.11,3.11,0,0,0,2.91-2.8h0l.42-4.41a3.11,3.11,0,0,0-2.33-3.29L433.74,65a20.62,20.62,0,0,0-1.41-4.59c.63-.68,1.25-1.36,1.85-2a3.11,3.11,0,0,0,.08-4l-2.83-3.42a3.11,3.11,0,0,0-4-.68l-2.34,1.44a20.62,20.62,0,0,0-4.24-2.25c0-.92-.07-1.85-.12-2.74a3.11,3.11,0,0,0-2.8-2.91l-4.41-.42a3.11,3.11,0,0,0-3.29,2.33c-.22.88-.43,1.78-.64,2.67A20.61,20.61,0,0,0,405,49.8c-.68-.63-1.36-1.25-2-1.85a3.11,3.11,0,0,0-4-.08l-3.41,2.83a3.11,3.11,0,0,0-.68,4c.47.77,1,1.56,1.44,2.34a20.63,20.63,0,0,0-2.25,4.24l-2.74.12a3.11,3.11,0,0,0-2.91,2.8L388,68.59a3.11,3.11,0,0,0,2.33,3.29l2.67.64a20.63,20.63,0,0,0,1.41,4.59c-.63.68-1.25,1.36-1.85,2a3.11,3.11,0,0,0-.08,4l2.83,3.42a3.06,3.06,0,0,0,.93.75,3.11,3.11,0,0,0,3.05-.07l2.34-1.44a20.65,20.65,0,0,0,4.24,2.25c0,.92.07,1.84.12,2.74a3.11,3.11,0,0,0,2.8,2.91l4.41.42a3.11,3.11,0,0,0,3.29-2.33c.22-.87.43-1.77.64-2.67a20.63,20.63,0,0,0,4.59-1.41c.67.63,1.36,1.25,2,1.85a3.11,3.11,0,0,0,4,.08l3.42-2.83A3.11,3.11,0,0,0,431.86,82.86ZM425.8,87c-.64-.58-1.3-1.18-1.94-1.78a3.09,3.09,0,0,0-3.37-.56,17.31,17.31,0,0,1-4.08,1.26,3.08,3.08,0,0,0-2.47,2.36c-.2.87-.4,1.73-.61,2.56l-4.06-.38c0-.87-.09-1.75-.12-2.63a3.09,3.09,0,0,0-2-2.78,17.33,17.33,0,0,1-3.78-2A3.08,3.08,0,0,0,400,83l-2.24,1.38-2.6-3.14c.58-.64,1.18-1.3,1.78-1.94a3.09,3.09,0,0,0,.56-3.37,17.32,17.32,0,0,1-1.26-4.08,3.08,3.08,0,0,0-2.36-2.47l-2.56-.61.38-4.06,2.63-.12a3.08,3.08,0,0,0,2.78-2,17.33,17.33,0,0,1,2-3.78,3.08,3.08,0,0,0,.08-3.42c-.47-.75-.93-1.5-1.38-2.24l3.14-2.6c.64.58,1.3,1.18,1.94,1.78a3.09,3.09,0,0,0,3.37.56,17.31,17.31,0,0,1,4.08-1.26,3.08,3.08,0,0,0,2.47-2.36c.2-.86.4-1.72.61-2.56l4.06.38c0,.86.08,1.75.12,2.63a3.08,3.08,0,0,0,2,2.78,17.3,17.3,0,0,1,3.78,2,3.08,3.08,0,0,0,3.42.08L429,53.18l2.6,3.14c-.58.64-1.18,1.3-1.78,1.94a3.09,3.09,0,0,0-.56,3.37,17.32,17.32,0,0,1,1.26,4.08,3.08,3.08,0,0,0,2.36,2.47l2.56.61-.38,4.06-2.63.12a3.08,3.08,0,0,0-2.78,2,17.32,17.32,0,0,1-2,3.78,3.09,3.09,0,0,0-.08,3.42c.47.75.93,1.5,1.38,2.24Z"/><path class="cls-17" d="M424.57,69.82h0A11.27,11.27,0,1,0,412.3,80,11.27,11.27,0,0,0,424.57,69.82Zm-12,6.86a8,8,0,1,1,8.67-7.17A7.9,7.9,0,0,1,412.61,76.68Z"/><path class="cls-17" d="M471.28,60.06l-1.43-1a15.37,15.37,0,0,0,.29-3.08l1.6-.75a2.63,2.63,0,0,0,1.37-3.13L472.16,49a2.63,2.63,0,0,0-2.89-1.82l-1.74.28a15.37,15.37,0,0,0-2-2.38c.21-.56.41-1.11.6-1.66a2.63,2.63,0,0,0-1.25-3.18l-2.85-1.51a2.63,2.63,0,0,0-3.33.76l-1,1.43a15.36,15.36,0,0,0-3.08-.29c-.25-.54-.5-1.07-.75-1.6a2.63,2.63,0,0,0-3.13-1.37l-3.08.95a2.63,2.63,0,0,0-1.82,2.89c.09.57.18,1.16.28,1.74a15.39,15.39,0,0,0-2.38,2l-1.66-.6a2.63,2.63,0,0,0-3.18,1.25L437.4,48.7a2.63,2.63,0,0,0,.76,3.33l1.43,1a15.38,15.38,0,0,0-.29,3.08l-1.6.75A2.63,2.63,0,0,0,436.33,60l.95,3.08a2.63,2.63,0,0,0,2.89,1.82l1.74-.28a15.37,15.37,0,0,0,2,2.38c-.21.56-.41,1.11-.6,1.66a2.63,2.63,0,0,0,1.25,3.18l2.85,1.51a2.63,2.63,0,0,0,3.33-.76l1-1.43a15.36,15.36,0,0,0,3.08.29c.25.54.5,1.07.75,1.6a2.63,2.63,0,0,0,3.13,1.37l3.08-.95a2.63,2.63,0,0,0,1.82-2.89c-.09-.57-.18-1.16-.28-1.74a15.38,15.38,0,0,0,2.38-2l1.66.6a2.63,2.63,0,0,0,3.18-1.25L472,63.39A2.63,2.63,0,0,0,471.28,60.06ZM468,64.37l-1.49-.55a2.61,2.61,0,0,0-2.82.65,12.21,12.21,0,0,1-2.32,1.92A2.61,2.61,0,0,0,460.16,69c.09.53.18,1.05.26,1.57l-2.22.68-.67-1.44a2.61,2.61,0,0,0-2.46-1.53,12.22,12.22,0,0,1-3-.28,2.61,2.61,0,0,0-2.7,1l-.93,1.29-2.05-1.09c.18-.49.36-1,.55-1.49a2.61,2.61,0,0,0-.65-2.82,12.21,12.21,0,0,1-1.92-2.32,2.61,2.61,0,0,0-2.65-1.17l-1.57.26-.68-2.22,1.44-.67a2.61,2.61,0,0,0,1.53-2.46,12.22,12.22,0,0,1,.28-3,2.61,2.61,0,0,0-1-2.7l-1.29-.93,1.09-2.05,1.49.55a2.61,2.61,0,0,0,2.82-.65,12.21,12.21,0,0,1,2.32-1.92A2.61,2.61,0,0,0,449.27,43c-.09-.53-.18-1.05-.26-1.57l2.22-.68.67,1.44a2.61,2.61,0,0,0,2.46,1.53,12.22,12.22,0,0,1,3,.28,2.61,2.61,0,0,0,2.7-1l.93-1.29L463,42.8c-.18.49-.36,1-.55,1.49a2.61,2.61,0,0,0,.65,2.82,12.22,12.22,0,0,1,1.92,2.32,2.61,2.61,0,0,0,2.65,1.17l1.57-.26.68,2.22-1.44.67A2.61,2.61,0,0,0,467,55.69a12.23,12.23,0,0,1-.28,3,2.61,2.61,0,0,0,1,2.7l1.29.93L468,64.37Z"/><path class="cls-17" d="M457.85,50.14a6.69,6.69,0,1,0,2.78,9A6.69,6.69,0,0,0,457.85,50.14ZM453,59.33a3.71,3.71,0,1,1,5-1.54A3.72,3.72,0,0,1,453,59.33Z"/><g id="Capa_8" data-name="Capa 8"><path class="cls-17" d="M587,262.17a1.4,1.4,0,0,0-.41-1l-10.75-10.75h0a1.4,1.4,0,0,0-1-.41H545a3,3,0,0,0-3,3v54a3,3,0,0,0,3,3h39a3,3,0,0,0,3-3V262.18Zm-10.74-7.34,6,6H576.4a.15.15,0,0,1-.15-.15v-5.81ZM584.19,307a.15.15,0,0,1-.15.15H545a.15.15,0,0,1-.15-.15V253a.15.15,0,0,1,.15-.15h28.45v7.79a3,3,0,0,0,3,3h7.79V307Z"/><path class="cls-17" d="M576.94,269.24H552.1a1.4,1.4,0,0,0,0,2.81h24.85a1.4,1.4,0,0,0,0-2.81Z"/><path class="cls-17" d="M576.94,277.71H552.1a1.4,1.4,0,0,0,0,2.81h24.85a1.4,1.4,0,0,0,0-2.81Z"/><path class="cls-17" d="M576.94,286.18H552.1a1.4,1.4,0,1,0,0,2.81h24.85a1.4,1.4,0,0,0,0-2.81Z"/><path class="cls-17" d="M564.52,294.65H552.1a1.4,1.4,0,0,0,0,2.81h12.42a1.4,1.4,0,0,0,0-2.81Z"/></g><path class="cls-17" d="M293,587.73a11.74,11.74,0,0,0-20.38-7.94,32.71,32.71,0,0,0-13.56-2.91,33.05,33.05,0,1,0,33.05,33.05,32.71,32.71,0,0,0-2.91-13.56A11.71,11.71,0,0,0,293,587.73Zm-11.74-8.44a8.44,8.44,0,1,1-8.44,8.44A8.45,8.45,0,0,1,281.26,579.3Zm-22.2,60.39a29.75,29.75,0,1,1,0-59.5,29.45,29.45,0,0,1,11.66,2.37,11.74,11.74,0,0,0,15.71,15.71,29.45,29.45,0,0,1,2.37,11.66A29.78,29.78,0,0,1,259.05,639.68Z"/><path class="cls-17" d="M285.64,586.08h-2.73v-2.73a1.65,1.65,0,1,0-3.31,0v2.73h-2.73a1.65,1.65,0,1,0,0,3.31h2.73v2.73a1.65,1.65,0,1,0,3.31,0v-2.73h2.73a1.65,1.65,0,0,0,0-3.31Z"/><path class="cls-17" d="M269.21,615.85a5.36,5.36,0,0,1-5.23-4.09,10.57,10.57,0,0,0,2.08-2.13,14.16,14.16,0,0,0,2.54-6.51,1.49,1.49,0,0,0,.23-.38,11.12,11.12,0,0,0,.86-4.33c0-5.81-4.4-10.53-9.8-10.53a9.12,9.12,0,0,0-4,.93,7.28,7.28,0,0,0-1.37.26c-4.53,1.31-7.09,6.77-5.72,12.17a8,8,0,0,0,.75,2,13,13,0,0,0,4.6,8.56,5.3,5.3,0,0,1-5.23,4.11,7.29,7.29,0,0,0-7,7.27v4.75a3.24,3.24,0,0,0,3.24,3.24H273a3.24,3.24,0,0,0,3.24-3.24v-4.75A7.29,7.29,0,0,0,269.21,615.85Zm-13.88-23.94a4.38,4.38,0,0,1,1-.16,1.49,1.49,0,0,0,.62-.17,6.22,6.22,0,0,1,2.92-.73c3.57,0,6.5,3,6.8,6.91a4.79,4.79,0,0,0-2.56-.74H257.4a1.33,1.33,0,0,1-.8-.26,1.34,1.34,0,0,1-.44-.57,1.71,1.71,0,0,0-3.24.21,8.63,8.63,0,0,1-1.45,3C251,595.92,252.62,592.69,255.33,591.91Zm-2.86,10.78a11.7,11.7,0,0,0,2.54-3.43,4.28,4.28,0,0,0,2.39.72h6.73a1.84,1.84,0,0,1,1.64,1c0,3.9-1.68,7.25-4,8.72a5.1,5.1,0,0,1-2.67.8C255.87,610.5,253.07,607.12,252.47,602.69Zm11,13.88a7.46,7.46,0,0,1-8.79,0,8.23,8.23,0,0,0,2.17-3.42,7.64,7.64,0,0,0,2.23.33,7.72,7.72,0,0,0,2.22-.33A8.23,8.23,0,0,0,263.45,616.57Zm9.82,11.31h0a.26.26,0,0,1-.26.26H245.09a.26.26,0,0,1-.26-.26v-4.75a4.31,4.31,0,0,1,4.3-4.3,9.36,9.36,0,0,0,2.89-.57,10.44,10.44,0,0,0,14.07,0,8,8,0,0,0,2.88.57,4.31,4.31,0,0,1,4.3,4.3v4.75Z"/><path class="cls-17" d="M110.4,461.93H69a1.37,1.37,0,0,0-1.37,1.37v20.63a1.37,1.37,0,1,0,2.73,0V464.66H109v19.26h0a1.37,1.37,0,0,0,2.73,0V463.29A1.37,1.37,0,0,0,110.4,461.93Z"/><path class="cls-17" d="M120.22,488.8h-2.52V460.12a4.13,4.13,0,0,0-4.13-4.13H65.87a4.13,4.13,0,0,0-4.13,4.13V488.8H59.23A1.23,1.23,0,0,0,58,490v2.41a6.07,6.07,0,0,0,6.06,6.06h51.33a6.07,6.07,0,0,0,6.06-6.06V490A1.23,1.23,0,0,0,120.22,488.8ZM64.48,460.12a1.4,1.4,0,0,1,1.4-1.4h47.71a1.4,1.4,0,0,1,1.4,1.4V488.8H96.49l-.27,0a1.23,1.23,0,0,0-1,1.21,1.88,1.88,0,0,1-1.88,1.88H86.11A1.88,1.88,0,0,1,84.23,490,1.23,1.23,0,0,0,83,488.8H64.48ZM119,492.44h0a3.61,3.61,0,0,1-3.61,3.61H64.06a3.61,3.61,0,0,1-3.61-3.61v-1.18H81.95a4.35,4.35,0,0,0,4.16,3.11h7.23a4.35,4.35,0,0,0,4.16-3.11H119v1.18Z"/><path class="cls-17" d="M91.75,469.87a1.37,1.37,0,0,0-1.93,0l-8.59,8.59a1.37,1.37,0,0,0,1.93,1.93l8.59-8.59A1.37,1.37,0,0,0,91.75,469.87Z"/><path class="cls-17" d="M96.84,474.84a1.37,1.37,0,0,0-1.93,0l-3.42,3.42a1.37,1.37,0,1,0,1.93,1.93l3.42-3.42A1.37,1.37,0,0,0,96.84,474.84Z"/><path class="cls-18" d="M407.51,621.35a7.92,7.92,0,0,0-6.16-3.34h-.16a6.1,6.1,0,0,1-6-5.38,11.48,11.48,0,0,0,2.46-2.48,15.61,15.61,0,0,0,2.81-7.24,1.43,1.43,0,0,0,.27-.42,12.2,12.2,0,0,0,.95-4.75c0-6.36-4.81-11.54-10.73-11.54a10,10,0,0,0-4.42,1,7.9,7.9,0,0,0-1.53.28c-4.94,1.43-7.74,7.41-6.23,13.33a13.21,13.21,0,0,0,.57,1.74,1.43,1.43,0,0,0,.25.4,14.16,14.16,0,0,0,5.25,9.63,6.1,6.1,0,0,1-6,5.39h-.14a7.91,7.91,0,0,0-7.62,7.9v8.51a1.44,1.44,0,0,0,1.44,1.44h25.4a1.44,1.44,0,0,0,0-2.87h-24v-7.07a5,5,0,0,1,5-5H379a8.9,8.9,0,0,0,2.95-.6l6.81,9.82a1.44,1.44,0,0,0,2.36,0l6.81-9.82a8.91,8.91,0,0,0,2.95.6h.14a5,5,0,0,1,4.11,2.13,1.44,1.44,0,0,0,2.35-1.66Zm-21.76-31.07a5.11,5.11,0,0,1,1.19-.19,1.44,1.44,0,0,0,.6-.16,7.16,7.16,0,0,1,3.36-.85c4.24,0,7.71,3.73,7.84,8.38a5.13,5.13,0,0,0-3.1-1h-7.52a1.72,1.72,0,0,1-1.6-1.08,1.69,1.69,0,0,0-3.2.21,9.88,9.88,0,0,1-2,3.83C380.61,595.21,382.48,591.22,385.76,590.28Zm-3.37,12.17a12.84,12.84,0,0,0,3-4.09h0a4.56,4.56,0,0,0,2.75.91h7.52a2.28,2.28,0,0,1,2.05,1.29,13.34,13.34,0,0,1-2.4,7.86,6.71,6.71,0,0,1-5.32,3,6.57,6.57,0,0,1-5-2.66A12.57,12.57,0,0,1,382.38,602.45Zm7.6,24.3-5.5-7.94a9,9,0,0,0,3-4.84,8.35,8.35,0,0,0,5,0,9,9,0,0,0,3,4.83Z"/><path class="cls-18" d="M432.38,626h-.14a6.1,6.1,0,0,1-6-5.39,12.77,12.77,0,0,0,4.17-5.54,1.44,1.44,0,0,0,2.51.46,15.13,15.13,0,0,0-.47-18.54,10.61,10.61,0,0,0-8-3.9h-.62a10.77,10.77,0,0,0-4.83-1A11.71,11.71,0,0,0,410,597a17.51,17.51,0,0,0-3.13,12.66,17.35,17.35,0,0,0,1.4,4.86,1.44,1.44,0,0,0,2.53.15c.12-.19.26-.42.43-.66a14.24,14.24,0,0,0,2.86,5.08,10.91,10.91,0,0,0,1.71,1.54,6.1,6.1,0,0,1-6,5.39h-.14a7.91,7.91,0,0,0-7.62,7.9v8.51a1.44,1.44,0,0,0,1.44,1.44h35.09a1.44,1.44,0,0,0,1.44-1.44V633.9A7.91,7.91,0,0,0,432.38,626ZM410.1,610.93a15.18,15.18,0,0,1-.33-1.7,14.06,14.06,0,0,1-.14-1.59,13.9,13.9,0,0,1,2.7-8.92,8.89,8.89,0,0,1,6.76-3.72,8.23,8.23,0,0,1,3.83.85,1.46,1.46,0,0,0,.69.15l.79,0a7.78,7.78,0,0,1,5.82,2.9,11.79,11.79,0,0,1,2.72,7.32,12.51,12.51,0,0,1-.62,4.34q-.2-.54-.45-1.07a12.83,12.83,0,0,0-6.58-6.44,1.44,1.44,0,0,0-1.91.83,10.65,10.65,0,0,1-.69,1.5,4.29,4.29,0,0,1-4,2.09H418a11.35,11.35,0,0,0-3.61.71A12.67,12.67,0,0,0,410.1,610.93Zm3.54.78a8.28,8.28,0,0,1,4.42-1.42h.57a7.14,7.14,0,0,0,6.57-3.56l.23-.43a10,10,0,0,1,3.27,3.33s0,.09,0,.13a12.81,12.81,0,0,1-2.65,7,6.57,6.57,0,0,1-5,2.66C417.63,619.47,414.62,616.26,413.63,611.71ZM418.53,622a8.25,8.25,0,0,0,5,0,9,9,0,0,0,4.29,5.73,7,7,0,0,1-13.56,0A9,9,0,0,0,418.53,622Zm18.6,19H404.91V633.9a5,5,0,0,1,5-5h.14a9,9,0,0,0,1.45-.16,9.91,9.91,0,0,0,19,0,8.94,8.94,0,0,0,1.45.16h.14a5,5,0,0,1,5,5Z"/><circle class="cls-17" cx="111.76" cy="192.1" r="1.54"/><circle class="cls-17" cx="101.88" cy="192.1" r="1.54"/><circle class="cls-17" cx="92" cy="192.1" r="1.54"/><circle class="cls-17" cx="82.12" cy="192.1" r="1.54"/><circle class="cls-17" cx="72.24" cy="192.1" r="1.54"/><circle class="cls-17" cx="111.76" cy="201.98" r="1.54"/><circle class="cls-17" cx="101.88" cy="201.98" r="1.54"/><circle class="cls-17" cx="92" cy="201.98" r="1.54"/><circle class="cls-17" cx="72.24" cy="201.98" r="1.54"/><circle class="cls-17" cx="111.76" cy="211.86" r="1.54"/><circle class="cls-17" cx="101.88" cy="211.86" r="1.54"/><circle class="cls-17" cx="92" cy="211.86" r="1.54"/><circle class="cls-17" cx="82.12" cy="211.86" r="1.54"/><circle class="cls-17" cx="72.24" cy="211.86" r="1.54"/><path class="cls-17" d="M86.76,196H77.48a1.32,1.32,0,0,0-1.32,1.32v9.29a1.32,1.32,0,0,0,1.32,1.32h9.29a1.32,1.32,0,0,0,1.32-1.32v-9.29A1.32,1.32,0,0,0,86.76,196Zm-1.32,9.29H78.8v-6.64h6.64v6.64Z"/><path class="cls-17" d="M119.59,178.32h-9.71v-1.7a1.47,1.47,0,0,0-2.94,0v1.7h-8v-1.7a1.47,1.47,0,0,0-2.94,0v1.7H88v-1.7a1.47,1.47,0,1,0-2.94,0v1.7h-8v-1.7a1.47,1.47,0,1,0-2.94,0v1.7H64.41A4.41,4.41,0,0,0,60,182.73V218.8a4.41,4.41,0,0,0,4.41,4.41h55.18A4.41,4.41,0,0,0,124,218.8V182.73A4.41,4.41,0,0,0,119.59,178.32Zm0,41.95H64.41a1.47,1.47,0,0,1-1.47-1.47V182.73a1.47,1.47,0,0,1,1.47-1.47h9.71V183a1.47,1.47,0,1,0,2.94,0v-1.7h8V183A1.47,1.47,0,1,0,88,183v-1.7h8V183a1.47,1.47,0,0,0,2.94,0v-1.7h8V183a1.47,1.47,0,0,0,2.94,0v-1.7h9.71a1.47,1.47,0,0,1,1.47,1.47V218.8h0A1.47,1.47,0,0,1,119.59,220.27Z"/></g><g id="de_text"><text class="cls-19" transform="translate(136.75 136.03)"><tspan class="cls-20">K</tspan><tspan x="15.25" y="0">u</tspan><tspan class="cls-21" x="30.09" y="0">n</tspan><tspan x="45.06" y="0">de</tspan><tspan class="cls-22" x="73.32" y="0">n</tspan><tspan x="88.02" y="0">wüns</tspan><tspan class="cls-23" x="147.94" y="0">c</tspan><tspan class="cls-24" x="160.17" y="0">h</tspan><tspan x="175.14" y="0">e</tspan></text><text class="cls-25" transform="translate(376.75 136.41)">Anal<tspan class="cls-26" x="62.26" y="0">y</tspan><tspan x="77.07" y="0">se</tspan></text><text class="cls-27" transform="translate(491.75 229.69)">A<tspan class="cls-28" x="18.9" y="0">n</tspan><tspan x="36.79" y="0">gebot</tspan></text><text class="cls-29" transform="translate(501.06 398.65)"><tspan class="cls-30">V</tspan><tspan class="cls-31" x="12.9" y="0">e</tspan><tspan class="cls-32" x="25.02" y="0">r</tspan><tspan x="33.37" y="0">t</tspan><tspan class="cls-33" x="41.52" y="0">r</tspan><tspan class="cls-34" x="49.39" y="0">a</tspan><tspan x="61.27" y="0">gsun</tspan><tspan class="cls-35" x="111.94" y="0">t</tspan><tspan x="119.7" y="0">e</tspan><tspan class="cls-36" x="131.83" y="0">r</tspan><tspan x="139.65" y="0">-</tspan><tspan class="cls-33" x="0" y="24.08">z</tspan><tspan x="10.07" y="24.08">ei</tspan><tspan class="cls-37" x="27.59" y="24.08">c</tspan><tspan x="38.73" y="24.08">hnu</tspan><tspan class="cls-38" x="79.41" y="24.08">n</tspan><tspan x="93.03" y="24.08">g</tspan></text><text class="cls-39" transform="translate(352.9 530.28) scale(1.19 1)"><tspan class="cls-40">V</tspan><tspan class="cls-41" x="10.8" y="0">o</tspan><tspan class="cls-42" x="21.33" y="0">r</tspan><tspan x="28" y="0">s</tspan><tspan class="cls-43" x="36.21" y="0">t</tspan><tspan class="cls-41" x="42.71" y="0">ellu</tspan><tspan class="cls-44" x="73.19" y="0">n</tspan><tspan x="84.59" y="0">g </tspan><tspan x="33.92" y="20.15">der </tspan><tspan class="cls-45" x="-12.94" y="40.31">K</tspan><tspan x="-1.23" y="40.31">a</tspan><tspan class="cls-46" x="8.67" y="40.31">n</tspan><tspan x="20.08" y="40.31">didatIn</tspan><tspan class="cls-44" x="80.54" y="40.31">n</tspan><tspan x="91.94" y="40.31">en</tspan></text><text class="cls-47" transform="translate(194.66 518.23)"><tspan class="cls-48">A</tspan><tspan x="10.35" y="0">u</tspan><tspan class="cls-48" x="20.21" y="0">s</tspan><tspan class="cls-49" x="27.22" y="0">w</tspan><tspan x="39.85" y="0">ahl </tspan><tspan x="-38.16" y="17.57">der </tspan><tspan class="cls-50" x="-9.69" y="17.57">K</tspan><tspan class="cls-51" x="0.52" y="17.57">a</tspan><tspan class="cls-52" x="9.16" y="17.57">n</tspan><tspan x="19.1" y="17.57">didatIn</tspan><tspan class="cls-52" x="71.81" y="17.57">n</tspan><tspan x="81.75" y="17.57">en </tspan><tspan x="-32.02" y="35.14">du</tspan><tspan class="cls-53" x="-12.24" y="35.14">r</tspan><tspan class="cls-54" x="-6.56" y="35.14">c</tspan><tspan x="1.57" y="35.14">h </tspan><tspan class="cls-55" x="15.31" y="35.14">K</tspan><tspan x="25.45" y="35.14">u</tspan><tspan class="cls-52" x="35.3" y="35.14">n</tspan><tspan x="45.24" y="35.14">dIn</tspan><tspan class="cls-52" x="69.5" y="35.14">n</tspan><tspan x="79.44" y="35.14">en</tspan></text><text class="cls-56" transform="translate(23.83 415.48)"><tspan class="cls-57">P</tspan><tspan class="cls-58" x="17.21" y="0">r</tspan><tspan x="26.82" y="0">ojektsta</tspan><tspan class="cls-59" x="125.81" y="0">r</tspan><tspan x="136.11" y="0">t</tspan></text><text class="cls-60" transform="translate(45.42 255.14)">Monatli<tspan class="cls-61" x="61.69" y="0">c</tspan><tspan class="cls-62" x="70.71" y="0">h</tspan><tspan x="81.76" y="0">e </tspan><tspan x="0" y="19.52">Stu</tspan><tspan class="cls-62" x="27.55" y="19.52">n</tspan><tspan x="38.59" y="19.52">den-</tspan><tspan x="0" y="39.03">ab</tspan><tspan class="cls-63" x="20.62" y="39.03">r</tspan><tspan x="26.93" y="39.03">e</tspan><tspan class="cls-61" x="36.76" y="39.03">c</tspan><tspan x="45.78" y="39.03">hnu</tspan><tspan class="cls-62" x="78.75" y="39.03">n</tspan><tspan x="89.79" y="39.03">g</tspan></text></g></g></svg>