<svg xmlns="http://www.w3.org/2000/svg" xmlns:xlink="http://www.w3.org/1999/xlink" viewBox="0 0 665.86 666"><defs><style>.cls-1{fill:#bb3953;}.cls-2{fill:#993161;}.cls-3{fill:#683b6d;}.cls-4{fill:#4f2752;}.cls-5{fill:#3d2a53;}.cls-6{fill:#ea264b;}.cls-7{fill:#4442a6;}.cls-8{fill:#fcfafa;}.cls-9{fill:#fcfcfc;}.cls-10,.cls-19,.cls-24,.cls-27,.cls-35,.cls-40,.cls-43{fill:#f9f9f9;}.cls-11{fill:#fff;}.cls-12,.cls-16{stroke-miterlimit:10;}.cls-12{stroke-width:0.61px;fill:url(#Degradado_sin_nombre_226);stroke:url(#Degradado_sin_nombre_227);}.cls-13{fill:url(#Degradado_sin_nombre_120);}.cls-14,.cls-18{opacity:0.36;}.cls-14{fill:url(#Degradado_sin_nombre_9);}.cls-15{fill:#ccc;opacity:0.19;}.cls-16{stroke-width:0.69px;fill:url(#Degradado_sin_nombre_349);stroke:url(#Degradado_sin_nombre_312);}.cls-17{fill:url(#Degradado_sin_nombre_238);}.cls-18{fill:url(#Degradado_sin_nombre_9-2);}.cls-19{font-size:27.91px;}.cls-19,.cls-24,.cls-27,.cls-35,.cls-40,.cls-43{font-family:Montserrat-Regular, Montserrat;}.cls-20{letter-spacing:-0.01em;}.cls-21{letter-spacing:0em;}.cls-22{letter-spacing:-0.01em;}.cls-23{letter-spacing:-0.02em;}.cls-24{font-size:30.64px;}.cls-25{letter-spacing:0em;}.cls-26{letter-spacing:-0.01em;}.cls-27{font-size:26.2px;}.cls-28{letter-spacing:0em;}.cls-29{letter-spacing:-0.01em;}.cls-30{letter-spacing:-0.02em;}.cls-31{letter-spacing:0em;}.cls-32{letter-spacing:0.01em;}.cls-33{letter-spacing:0em;}.cls-34{letter-spacing:-0.01em;}.cls-35{font-size:27.26px;}.cls-36{letter-spacing:-0.01em;}.cls-37{letter-spacing:-0.01em;}.cls-38{letter-spacing:0em;}.cls-39{letter-spacing:0em;}.cls-40{font-size:27.63px;}.cls-41{letter-spacing:0em;}.cls-42{letter-spacing:0em;}.cls-43{font-size:23.35px;}.cls-44{letter-spacing:0.02em;}.cls-45{letter-spacing:-0.02em;}</style><linearGradient id="Degradado_sin_nombre_226" x1="1086.86" y1="327.59" x2="1100.89" y2="386.93" gradientTransform="matrix(-1, 0, 0, 1, 1396.12, 0)" gradientUnits="userSpaceOnUse"><stop offset="0" stop-color="#008a94"/><stop offset="0.17" stop-color="#028f92"/><stop offset="0.38" stop-color="#089e8c"/><stop offset="0.61" stop-color="#12b783"/><stop offset="0.86" stop-color="#21d976"/><stop offset="0.97" stop-color="#28eb6f"/></linearGradient><linearGradient id="Degradado_sin_nombre_227" x1="1049.16" y1="365.63" x2="1111.56" y2="313.27" gradientTransform="matrix(-1, 0, 0, 1, 1396.12, 0)" gradientUnits="userSpaceOnUse"><stop offset="0" stop-color="#008a94"/><stop offset="0.14" stop-color="#028e93" stop-opacity="0.97"/><stop offset="0.31" stop-color="#06988f" stop-opacity="0.87"/><stop offset="0.5" stop-color="#0daa88" stop-opacity="0.71"/><stop offset="0.7" stop-color="#17c27f" stop-opacity="0.48"/><stop offset="0.91" stop-color="#24e173" stop-opacity="0.19"/><stop offset="0.97" stop-color="#28eb6f" stop-opacity="0.1"/></linearGradient><linearGradient id="Degradado_sin_nombre_120" x1="1106.01" y1="404.82" x2="1084.18" y2="271.5" gradientTransform="matrix(-1, 0, 0, 1, 1396.12, 0)" gradientUnits="userSpaceOnUse"><stop offset="0" stop-color="#0b516b"/><stop offset="0.16" stop-color="#0e566d"/><stop offset="0.35" stop-color="#156571"/><stop offset="0.56" stop-color="#227e78"/><stop offset="0.78" stop-color="#34a083"/><stop offset="0.97" stop-color="#46c28d"/></linearGradient><linearGradient id="Degradado_sin_nombre_9" x1="307.37" y1="387.94" x2="270.7" y2="275.24" gradientTransform="translate(13.25)" gradientUnits="userSpaceOnUse"><stop offset="0" stop-color="#0b516b"/><stop offset="0.19" stop-color="#0d556c"/><stop offset="0.37" stop-color="#146170"/><stop offset="0.57" stop-color="#1e7676"/><stop offset="0.76" stop-color="#2d927f"/><stop offset="0.95" stop-color="#40b78a"/><stop offset="1" stop-color="#46c28d"/></linearGradient><linearGradient id="Degradado_sin_nombre_349" x1="339.53" y1="267.66" x2="363.47" y2="294.19" gradientTransform="translate(5.43)" gradientUnits="userSpaceOnUse"><stop offset="0" stop-color="#454545"/><stop offset="0.51" stop-color="#434343"/><stop offset="0.69" stop-color="#3c3d3d"/><stop offset="0.82" stop-color="#313132"/><stop offset="0.93" stop-color="#202123"/><stop offset="1" stop-color="#0f1113"/></linearGradient><linearGradient id="Degradado_sin_nombre_312" x1="324.04" y1="314.76" x2="408.82" y2="314.76" gradientTransform="translate(5.43)" gradientUnits="userSpaceOnUse"><stop offset="0" stop-color="#707070" stop-opacity="0.05"/><stop offset="1" stop-color="#0d433e" stop-opacity="0.05"/></linearGradient><linearGradient id="Degradado_sin_nombre_238" x1="2088.53" y1="301.05" x2="2088.53" y2="371.19" gradientTransform="matrix(-1, 0, 0, 1, 2475.99, 0)" gradientUnits="userSpaceOnUse"><stop offset="0" stop-color="#008a94"/><stop offset="0.17" stop-color="#039191"/><stop offset="0.42" stop-color="#0ba689"/><stop offset="0.73" stop-color="#19c77d"/><stop offset="1" stop-color="#28eb6f"/></linearGradient><linearGradient id="Degradado_sin_nombre_9-2" x1="2089.13" y1="286.09" x2="2089.13" y2="324.72" gradientTransform="matrix(-1, 0, 0, 1, 2475.99, 0)" xlink:href="#Degradado_sin_nombre_9"/></defs><title>es_approach_circle</title><g id="Layer_2" data-name="Layer 2"><g id="form"><path class="cls-1" d="M266.28,201.93a146,146,0,0,1,46-14.48l17.67-32.9c5.69-.1,11.42,0,17.21.48s11.36,1.14,16.91,2.08l12.45,35.45a146.07,146.07,0,0,1,23.39,9.53l73.39-61.69L506.82,49a333.39,333.39,0,0,0-325-12.82l65.41,73.92Z"/><path class="cls-2" d="M521,58.16,486.62,151l-71.75,60a147.77,147.77,0,0,1,33,30.44l40.78-1.26a181.07,181.07,0,0,1,14.64,30.27l-26.77,31.18a146.77,146.77,0,0,1,2.8,18.33l93.39,29.9L665.86,330C664.85,217.09,607.7,117.63,521,58.16Z"/><path class="cls-3" d="M570.89,366.76l-91.05-29.42a146.42,146.42,0,0,1-10,49.17l22,35.48a181.06,181.06,0,0,1-18.72,27.34L432,441.6a147.67,147.67,0,0,1-16.38,13l17.26,93.71,63.41,75c97.5-55,164.49-157.68,169.34-276.41Z"/><path class="cls-4" d="M400.53,463.55a146,146,0,0,1-45.22,14.75L335.6,515c-5.24.06-10.53-.1-15.85-.5-5.86-.44-11.62-1.17-17.3-2.15L288.7,473.22A146.24,146.24,0,0,1,268,464.9l-59.49,72.31-16.59,97.52a333.52,333.52,0,0,0,289.52-3.62l-64.34-76.45Z"/><path class="cls-5" d="M218.29,425l-40.72,1.26a181,181,0,0,1-14.5-30.53l26.36-30.71a147,147,0,0,1-3.23-22.82L94.9,341,0,342.28C3.42,465.75,74,572.41,176.53,627.05l16.89-97.79,60-72.57A147.74,147.74,0,0,1,218.29,425Z"/><path class="cls-6" d="M196,279.45,175,245.62a181.07,181.07,0,0,1,19.46-28.24l39,7.34a147.66,147.66,0,0,1,17.81-14l-19.7-93.83L167,44.21C69.22,100.5,2.73,205,0,325.3l94.9.7,91.21-.8A146.28,146.28,0,0,1,196,279.45Z"/><path class="cls-7" d="M475.66,248,437,249.21a134,134,0,0,0-63.25-43.46l-12.58-35.82c-5.1-.87-10.27-1.52-15.53-1.91s-10.58-.54-15.81-.44L312,200.89a134,134,0,0,0-69.44,33.19l-37-7a166.31,166.31,0,0,0-17.87,25.93l19.85,32.06a134.78,134.78,0,0,0-6,76.85l-24.88,29A166.24,166.24,0,0,0,190,419l38.35-1.18a134,134,0,0,0,63.44,43.48L304.66,498c5.21.9,10.51,1.57,15.89,2,4.89.37,9.74.51,14.56.46L353.6,466a134,134,0,0,0,69.17-33.14l38.62,7.26A166.29,166.29,0,0,0,478.57,415l-20.67-33.38a134.78,134.78,0,0,0,5.94-76.41l25.26-29.43A166.3,166.3,0,0,0,475.66,248Z"/></g><g id="Logo"><path class="cls-8" d="M134.48,128.78a10.13,10.13,0,0,0-10.12,10.12,1.38,1.38,0,0,0,1.38,1.38h8.74a1.38,1.38,0,0,0,1.38-1.38v-8.74A1.38,1.38,0,0,0,134.48,128.78Zm-1.38,8.74h-5.84a7.37,7.37,0,0,1,5.84-5.84Z"/><path class="cls-8" d="M139.16,130.21a1.38,1.38,0,0,0-1.38,1.38v10.6h-10.6a1.38,1.38,0,0,0-1.38,1.38,13.37,13.37,0,1,0,13.37-13.37Zm0,24A10.62,10.62,0,0,1,128.65,145h10.51a1.38,1.38,0,0,0,1.38-1.38V133.07a10.6,10.6,0,0,1-1.38,21.12Z"/><path class="cls-8" d="M170.41,116.77H140.73V115a1.54,1.54,0,1,0-3.07,0v1.73H108a3.08,3.08,0,0,0-3.07,3.07v2.85a3.08,3.08,0,0,0,3.07,3.07h.42v34.53a3.08,3.08,0,0,0,3.07,3.07h26.19v4.51l-11.38,8.35a1.54,1.54,0,0,0,1.82,2.48l9.57-7v5.78a1.54,1.54,0,1,0,3.07,0v-5.78l9.57,7a1.54,1.54,0,1,0,1.82-2.48l-11.38-8.35v-4.51h26.19a3.08,3.08,0,0,0,3.07-3.07V125.76h.42a3.08,3.08,0,0,0,3.07-3.07v-2.85A3.08,3.08,0,0,0,170.41,116.77Zm-3.49,43.53H111.47V125.76h55.45v34.53Zm3.49-37.6H108v-2.85h62.43v2.85Z"/><rect class="cls-9" x="526.61" y="142.63" width="2.42" height="2.42"/><rect class="cls-9" x="531.44" y="142.63" width="2.42" height="2.42"/><path class="cls-9" d="M568.55,162.31a1.21,1.21,0,0,0-1.71,0L558,171.12v-28.5A3.63,3.63,0,0,0,554.4,139h-29a3.63,3.63,0,0,0-3.62,3.63v9.67h-7.25a3.63,3.63,0,0,0-3.62,3.63v7.25a3.63,3.63,0,0,0,3.62,3.63h7.25v8.46h-7.25a3.63,3.63,0,1,0,0,7.25h7.25v3.63a3.63,3.63,0,0,0,3.63,3.63h14l-5.19,5.19a1.21,1.21,0,0,0,.85,2.06h32.63a1.21,1.21,0,0,0,1.21-1.21V163.17A1.21,1.21,0,0,0,568.55,162.31Zm-43.15-20.9h29a1.21,1.21,0,0,1,1.21,1.21v3.63H524.19v-3.62A1.21,1.21,0,0,1,525.4,141.42Zm-12.08,21.75v-7.25a1.21,1.21,0,0,1,1.21-1.21h16.92a1.21,1.21,0,0,1,1.21,1.21v7.25a1.21,1.21,0,0,1-1.21,1.21h-3.62a1.21,1.21,0,0,0-1.21,1.21v1.92l-2.77-2.77a1.21,1.21,0,0,0-.85-.35h-8.46A1.21,1.21,0,0,1,513.32,163.17Zm27.79,14.5v2.42H519.36v-2.42Zm-27.79,1.21a1.21,1.21,0,0,1,1.21-1.21h2.42v2.42h-2.42A1.21,1.21,0,0,1,513.32,178.88Zm12.08,8.46a1.21,1.21,0,0,1-1.21-1.21V182.5h18.13a1.2,1.2,0,0,0,.54-.13h0l4.83-2.42a1.21,1.21,0,0,0,0-2.16l-4.75-2.38a1.2,1.2,0,0,0-.62-.17H524.19V168.5l2.77,2.77a1.21,1.21,0,0,0,2.06-.85v-3.62h2.42a3.63,3.63,0,0,0,3.63-3.62v-7.25a3.63,3.63,0,0,0-3.62-3.62h-7.25v-3.62h31.42v24.87l-13.79,13.79Zm41.08,7.25h-2.42v-1.21h-2.42v1.21h-2.42v-1.21h-2.42v1.21H554.4v-1.21H552v1.21h-2.42v-1.21h-2.42v1.21h-2.42v-1.21h-2.42v1.21H538l28.5-28.5Z"/><path class="cls-9" d="M547.15,192.17h15.71a1.21,1.21,0,0,0,1.21-1.21V175.25a1.21,1.21,0,0,0-2.06-.85L546.3,190.1a1.21,1.21,0,0,0,.85,2.06Zm14.5-14v11.58H550.07Z"/><rect class="cls-9" x="515.74" y="158.33" width="2.42" height="2.42"/><rect class="cls-9" x="520.57" y="158.33" width="9.67" height="2.42"/><path class="cls-9" d="M552,153.5h-14.5v2.42h13.29v14.5H533.86v-1.21h-2.42v2.42a1.21,1.21,0,0,0,1.21,1.21H552a1.21,1.21,0,0,0,1.21-1.21V154.71A1.21,1.21,0,0,0,552,153.5Z"/><rect class="cls-9" x="545.94" y="165.58" width="2.42" height="2.42"/><rect class="cls-9" x="541.11" y="165.58" width="2.42" height="2.42"/><rect class="cls-9" x="545.94" y="160.75" width="2.42" height="2.42"/><path class="cls-8" d="M363.42,76.32h-7.74a.51.51,0,0,1-.51-.51V73.93a.51.51,0,0,0-.51-.51H343.83a.51.51,0,0,0-.51.51v1.88a.51.51,0,0,1-.51.51H337a.51.51,0,0,0-.51.51V79a.51.51,0,0,0,.51.51h26.42a.51.51,0,0,0,.51-.51V76.83A.51.51,0,0,0,363.42,76.32Z"/><path class="cls-8" d="M376.42,25.37H321.19a3.49,3.49,0,0,0-3.48,3.49v9.09c0,1.2-.09,1.37.72,1.37h1.38c.68,0,.54-.17.54-1.39V28.85a.86.86,0,0,1,.85-.85h55.23a.86.86,0,0,1,.85.85v34H337.89s-1.39,0-1.39,1.79v4.26c0,1.79,1.43,1.79,1.43,1.79h38.48a3.49,3.49,0,0,0,3.48-3.48V28.85A3.49,3.49,0,0,0,376.42,25.37ZM348.81,67.71a1.57,1.57,0,1,1,1.57-1.57A1.57,1.57,0,0,1,348.81,67.71Z"/><path class="cls-8" d="M331.13,42.43h-20a2.25,2.25,0,0,0-2.25,2.25V77.51a2.25,2.25,0,0,0,2.25,2.25h20a2.25,2.25,0,0,0,2.25-2.25V44.68A2.25,2.25,0,0,0,331.13,42.43Zm-12.45,2.29h4.93a.43.43,0,0,1,0,.85h-4.93a.43.43,0,0,1,0-.85Zm2.43,33.46A1.16,1.16,0,1,1,322.27,77,1.16,1.16,0,0,1,321.11,78.18Zm10.34-3.42a.54.54,0,0,1-.53.55H311.37a.54.54,0,0,1-.53-.55V47.48a.54.54,0,0,1,.53-.55h19.54a.54.54,0,0,1,.53.55Z"/><path id="App_Store" data-name="App Store" class="cls-9" d="M263.9,624.55v-6.41a1.07,1.07,0,0,1,1.07-1.07H276.3l-4.93,8.54H265A1.07,1.07,0,0,1,263.9,624.55ZM272,637.67l-3.61,2.45c-.49.33-.83.12-.76-.46l.48-4.19a.66.66,0,0,1,1.05-.53l2.8,1.6A.62.62,0,0,1,272,637.67Zm.87-2.36-2.8-1.6a1.06,1.06,0,0,1-.39-1.46l12.95-22.45a1.08,1.08,0,0,1,1.47-.39l2.8,1.59a1.07,1.07,0,0,1,.39,1.46L274.3,634.91A1.08,1.08,0,0,1,272.84,635.31Zm9.86-9.69,4.93-8.54h2.84l4,8.54Zm16.06,2.55c-1.12-.56-6.69-13.37-8.12-16.71s-5.75-12.24-4.35-12.93c1-.5,4.56,6.51,7.23,10.71s8.25,15,8.94,16.28-.66,2.27-1.4,2.58A2.16,2.16,0,0,1,298.75,628.16Zm3.66,5.89-1.68-2.65a1,1,0,0,1,.4-1.52l1.61-.82a1.19,1.19,0,0,1,1.58.52l1.33,2.54a1.26,1.26,0,0,1-.45,1.64l-1.15.68A1.21,1.21,0,0,1,302.41,634.05Zm6.2,6.95c-.35-1.12-3-1.2-4.24-2.89s-.21-2.55.21-3C309.46,632.42,308.61,641,308.61,641Zm2.51-16.45a1.07,1.07,0,0,1-1.07,1.07h-5.67a3.21,3.21,0,0,0-.34-1c-.15-.26-.52-1-1-2-.75-1.43-1.83-3.47-3-5.61h10a1.07,1.07,0,0,1,1.07,1.07v6.41h0Z"/><path class="cls-10" d="M329.49,613.42v21.14L350.64,624Zm2.64,4.27,12.61,6.3-12.61,6.3Z"/><path class="cls-10" d="M347.16,605.23v-1.32a7.91,7.91,0,1,0-15.82,0v1.32H322.9V641h32.7V605.23ZM334,603.91a5.27,5.27,0,0,1,10.55,0v1.32H334Zm19,34.45H325.54v-30.5h5.8v2.64H334v-2.64h10.55v2.64h2.64v-2.64H353Z"/><path class="cls-8" d="M109.42,420.32h-7.74a.51.51,0,0,1-.51-.51v-1.88a.51.51,0,0,0-.51-.51H89.83a.51.51,0,0,0-.51.51v1.88a.51.51,0,0,1-.51.51H83a.51.51,0,0,0-.51.51V423a.51.51,0,0,0,.51.51h26.42a.51.51,0,0,0,.51-.51v-2.18A.51.51,0,0,0,109.42,420.32Z"/><path class="cls-8" d="M122.42,369.37H67.19a3.49,3.49,0,0,0-3.48,3.49v9.09c0,1.2-.09,1.37.72,1.37h1.38c.68,0,.54-.17.54-1.39v-9.07a.86.86,0,0,1,.85-.85h55.23a.86.86,0,0,1,.85.85v34H83.89s-1.39,0-1.39,1.79v4.26c0,1.79,1.43,1.79,1.43,1.79h38.48a3.49,3.49,0,0,0,3.48-3.48V372.85A3.49,3.49,0,0,0,122.42,369.37ZM94.81,411.71a1.57,1.57,0,1,1,1.57-1.57A1.57,1.57,0,0,1,94.81,411.71Z"/><path class="cls-8" d="M77.13,386.43h-20a2.25,2.25,0,0,0-2.25,2.25v32.84a2.25,2.25,0,0,0,2.25,2.25h20a2.25,2.25,0,0,0,2.25-2.25V388.68A2.25,2.25,0,0,0,77.13,386.43Zm-12.45,2.29H69.6a.43.43,0,1,1,0,.85H64.68a.43.43,0,0,1,0-.85Zm2.43,33.46A1.16,1.16,0,1,1,68.27,421,1.16,1.16,0,0,1,67.11,422.18Zm10.34-3.42a.54.54,0,0,1-.53.55H57.37a.54.54,0,0,1-.53-.55V391.48a.54.54,0,0,1,.53-.55H76.91a.54.54,0,0,1,.53.55Z"/><path class="cls-11" d="M86.13,404.38a9.74,9.74,0,0,1-2.71.4,8.67,8.67,0,0,1-7.81-12.41.55.55,0,0,1,.4-.3h0a.58.58,0,0,1,.44.15l5.41,5.41a2.16,2.16,0,1,0,3.05-3.05l-5.41-5.41a.56.56,0,0,1-.15-.48.55.55,0,0,1,.31-.4,8.77,8.77,0,0,1,3.75-.85A8.6,8.6,0,0,1,89.56,390a8.76,8.76,0,0,1,2.12,8.79l5.15,5.2-5.6,5.53Z"/><path d="M83.44,387.5A8.55,8.55,0,0,1,89.52,390a8.71,8.71,0,0,1,2.11,8.74l0,.06,0,0,5.07,5.07-5.49,5.49-5.07-5.07,0,0-.06,0a8.71,8.71,0,0,1-2.65.41,8.62,8.62,0,0,1-7.77-12.34.5.5,0,0,1,.37-.28h.08a.51.51,0,0,1,.35.15l5.41,5.41A2.21,2.21,0,1,0,85,394.55l-5.41-5.41a.51.51,0,0,1-.14-.44.5.5,0,0,1,.28-.37,8.71,8.71,0,0,1,3.73-.84m0-.1a8.81,8.81,0,0,0-3.77.85.6.6,0,0,0-.17,1l5.41,5.41a2.11,2.11,0,0,1-3,3l-5.41-5.41a.6.6,0,0,0-.43-.18H76a.6.6,0,0,0-.44.33,8.72,8.72,0,0,0,10.54,12.06l5.14,5.14,5.63-5.63-5.14-5.14a8.75,8.75,0,0,0-2.13-8.84,8.65,8.65,0,0,0-6.16-2.55Z"/><path class="cls-11" d="M110.87,432.24a8.6,8.6,0,0,1-6.12-2.54,8.77,8.77,0,0,1-2.12-8.79l-5.7-5.74,5.64-5.56,5.62,5.69a9.74,9.74,0,0,1,2.72-.41,8.66,8.66,0,0,1,7.81,12.41.55.55,0,0,1-.4.3h0a.57.57,0,0,1-.44-.15L112.41,422a2.16,2.16,0,1,0-3.05,3.05l5.41,5.41a.55.55,0,0,1,.15.48.55.55,0,0,1-.31.4A8.75,8.75,0,0,1,110.87,432.24Z"/><path d="M102.52,409.72l5.62,5.62,0,0,.06,0a8.71,8.71,0,0,1,2.65-.42,8.61,8.61,0,0,1,7.77,12.33.5.5,0,0,1-.37.28h-.08a.5.5,0,0,1-.35-.15L112.44,422a2.21,2.21,0,1,0-3.12,3.12l5.41,5.41a.5.5,0,0,1-.14.8,8.71,8.71,0,0,1-3.73.84,8.55,8.55,0,0,1-6.09-2.52,8.72,8.72,0,0,1-2.11-8.73l0-.06,0,0L97,415.21l5.49-5.49m0-.14-5.64,5.64,5.69,5.69a8.76,8.76,0,0,0,2.13,8.84,8.65,8.65,0,0,0,6.16,2.55,8.81,8.81,0,0,0,3.77-.85.6.6,0,0,0,.17-1l-5.41-5.41a2.11,2.11,0,0,1,3-3l5.41,5.41a.6.6,0,0,0,.42.18h.1a.6.6,0,0,0,.44-.33,8.72,8.72,0,0,0-10.54-12.06l-5.69-5.69Z"/><path class="cls-11" d="M94.85,414.64a2.56,2.56,0,0,0-.36-.46L92.27,412a2.62,2.62,0,0,0-.52-.39L105,398.42l-.28-.35s-.71-.81-.23-1.45a3.28,3.28,0,0,0,.21-3.14c-.54-1.35-2.25-3.75-7.72-4.71-.75-.13-.87-.25-.87-.31s.05-.16.65-.37a8,8,0,0,1,2.59-.41c2.75,0,7.33,1.29,13.49,7.45,0,0,3.25,3.79,2.84,5.34-.1.36.53,1.3,1.16,2.16l.64-.56a1.4,1.4,0,0,1,2,0,1.4,1.4,0,0,1,0,2L116,407.47a1.4,1.4,0,0,1-2.39-1,1.38,1.38,0,0,1,.41-1l.43-.43a10.29,10.29,0,0,0-.77-.69c-.95-.8-2.38-2-3.18-2a.6.6,0,0,0-.27.06,1,1,0,0,1-.43.1h0a2.24,2.24,0,0,1-1.23-.53l-.52-.52Z"/><path d="M99.33,387.74c2.74,0,7.3,1.29,13.45,7.43,0,0,3.23,3.77,2.83,5.3-.08.31.26.95,1.17,2.21l.07.09.08-.08.57-.57a1.35,1.35,0,0,1,1.91,1.91L116,407.44a1.35,1.35,0,0,1-2.3-1,1.33,1.33,0,0,1,.4-1l.43-.43.1-.1-.13-.06h0c-.17-.13-.43-.34-.73-.6-1-.86-2.4-2-3.21-2a.64.64,0,0,0-.29.06.91.91,0,0,1-.41.09,2.19,2.19,0,0,1-1.2-.51l-.52-.52-.07-.07-.07.07L94.86,414.56a2.53,2.53,0,0,0-.33-.41l-2.22-2.22a2.49,2.49,0,0,0-.42-.33L105,398.46l.07-.07-.07-.07-.28-.27s-.68-.78-.23-1.39a3.33,3.33,0,0,0,.22-3.19c-.54-1.36-2.27-3.78-7.75-4.74-.77-.14-.83-.25-.83-.26s0-.11.62-.32a7.89,7.89,0,0,1,2.57-.41m0-.1a8,8,0,0,0-2.61.42c-1,.36-.84.58.23.77,7.83,1.37,8.8,6,7.47,7.77-.51.69.23,1.52.23,1.52l.28.28L91.73,411.61a2.6,2.6,0,0,1,.51.39l2.22,2.22a2.58,2.58,0,0,1,.38.5l13.22-13.22.52.52a2.28,2.28,0,0,0,1.27.54,1,1,0,0,0,.45-.1.54.54,0,0,1,.25-.05c1,0,3.17,2.1,3.89,2.62h0l-.43.43a1.45,1.45,0,0,0,2,2l3.41-3.41a1.45,1.45,0,0,0-2-2l-.57.57c-.47-.65-1.25-1.75-1.15-2.12.42-1.6-2.85-5.39-2.85-5.39-6-6-10.52-7.46-13.52-7.46Z"/><path class="cls-11" d="M79.58,432a1.12,1.12,0,0,1-.79-.33l-4-4a1.11,1.11,0,0,1,.06-1.64l14.69-13.17a1.29,1.29,0,0,1,.85-.31,1.31,1.31,0,0,1,.92.37l2.22,2.22a1.32,1.32,0,0,1,.06,1.77L80.43,431.6a1.12,1.12,0,0,1-.84.39Z"/><path d="M90.39,412.59a1.26,1.26,0,0,1,.89.36l2.22,2.22a1.27,1.27,0,0,1,.06,1.7l-13.18,14.7a1.06,1.06,0,0,1-1.56.05l-4-4a1.06,1.06,0,0,1,.06-1.57l14.69-13.17a1.24,1.24,0,0,1,.82-.3m0-.1a1.34,1.34,0,0,0-.88.32L74.82,426a1.16,1.16,0,0,0-.06,1.71l4,4a1.16,1.16,0,0,0,1.71-.06l13.17-14.7a1.37,1.37,0,0,0-.07-1.84l-2.22-2.22a1.36,1.36,0,0,0-1-.39Z"/><path class="cls-8" d="M572.42,439.32h-7.74a.51.51,0,0,1-.51-.51v-1.88a.51.51,0,0,0-.51-.51H552.83a.51.51,0,0,0-.51.51v1.88a.51.51,0,0,1-.51.51H546a.51.51,0,0,0-.51.51V442a.51.51,0,0,0,.51.51h26.42a.51.51,0,0,0,.51-.51v-2.18A.51.51,0,0,0,572.42,439.32Z"/><path class="cls-8" d="M585.42,388.37H530.19a3.49,3.49,0,0,0-3.48,3.49v9.09c0,1.2-.09,1.37.72,1.37h1.38c.68,0,.54-.17.54-1.39v-9.07a.86.86,0,0,1,.85-.85h55.23a.86.86,0,0,1,.85.85v34H546.89s-1.39,0-1.39,1.79v4.26c0,1.79,1.43,1.79,1.43,1.79h38.48a3.49,3.49,0,0,0,3.48-3.48V391.85A3.49,3.49,0,0,0,585.42,388.37Zm-27.61,42.34a1.57,1.57,0,1,1,1.57-1.57A1.57,1.57,0,0,1,557.81,430.71Z"/><path class="cls-8" d="M540.13,405.43h-20a2.25,2.25,0,0,0-2.25,2.25v32.84a2.25,2.25,0,0,0,2.25,2.25h20a2.25,2.25,0,0,0,2.25-2.25V407.68A2.25,2.25,0,0,0,540.13,405.43Zm-12.45,2.29h4.93a.43.43,0,0,1,0,.85h-4.93a.43.43,0,0,1,0-.85Zm2.43,33.46a1.16,1.16,0,1,1,1.16-1.16A1.16,1.16,0,0,1,530.11,441.18Zm10.34-3.42a.54.54,0,0,1-.53.55H520.37a.54.54,0,0,1-.53-.55V410.48a.54.54,0,0,1,.53-.55h19.54a.54.54,0,0,1,.53.55Z"/><path class="cls-10" d="M567.25,416.67l-.75-1.22a10.79,10.79,0,0,0,1.18-2.22l1.44-.06a1.63,1.63,0,0,0,1.52-1.46h0l.22-2.31a1.63,1.63,0,0,0-1.22-1.72l-1.4-.33a10.79,10.79,0,0,0-.74-2.4l1-1.06a1.63,1.63,0,0,0,0-2.11L567,400a1.63,1.63,0,0,0-2.08-.36l-1.22.75a10.79,10.79,0,0,0-2.22-1.18c0-.48,0-1-.06-1.44a1.63,1.63,0,0,0-1.46-1.52l-2.31-.22a1.63,1.63,0,0,0-1.72,1.22c-.11.46-.23.93-.33,1.4a10.78,10.78,0,0,0-2.4.74l-1.06-1a1.63,1.63,0,0,0-2.11,0l-1.79,1.48a1.63,1.63,0,0,0-.36,2.08l.75,1.22a10.79,10.79,0,0,0-1.18,2.22l-1.44.06a1.63,1.63,0,0,0-1.52,1.46l-.22,2.31a1.63,1.63,0,0,0,1.22,1.72l1.4.33a10.8,10.8,0,0,0,.74,2.4l-1,1.06a1.63,1.63,0,0,0,0,2.11l1.48,1.79a1.6,1.6,0,0,0,.49.39,1.63,1.63,0,0,0,1.6,0l1.22-.75a10.81,10.81,0,0,0,2.22,1.18c0,.48,0,1,.06,1.44a1.63,1.63,0,0,0,1.46,1.52l2.31.22a1.63,1.63,0,0,0,1.72-1.22c.11-.46.22-.93.33-1.4a10.79,10.79,0,0,0,2.4-.74l1.06,1a1.63,1.63,0,0,0,2.11,0l1.79-1.48A1.63,1.63,0,0,0,567.25,416.67Zm-3.17,2.17-1-.93a1.61,1.61,0,0,0-1.77-.29,9.06,9.06,0,0,1-2.14.66,1.61,1.61,0,0,0-1.29,1.24c-.1.45-.21.9-.32,1.34l-2.12-.2c0-.46,0-.92-.06-1.38a1.61,1.61,0,0,0-1-1.46,9.07,9.07,0,0,1-2-1,1.61,1.61,0,0,0-1.79,0l-1.17.72L548,415.8l.93-1a1.61,1.61,0,0,0,.29-1.77,9.06,9.06,0,0,1-.66-2.14,1.61,1.61,0,0,0-1.24-1.29l-1.34-.32.2-2.12,1.38-.06a1.61,1.61,0,0,0,1.46-1,9.07,9.07,0,0,1,1-2,1.61,1.61,0,0,0,0-1.79l-.72-1.17,1.64-1.36,1,.93a1.61,1.61,0,0,0,1.77.29,9.06,9.06,0,0,1,2.14-.66,1.61,1.61,0,0,0,1.29-1.24c.1-.45.21-.9.32-1.34l2.12.2c0,.45,0,.91.06,1.38a1.61,1.61,0,0,0,1,1.46,9.05,9.05,0,0,1,2,1,1.61,1.61,0,0,0,1.79,0l1.17-.72,1.36,1.64-.93,1a1.61,1.61,0,0,0-.29,1.77,9.06,9.06,0,0,1,.66,2.14,1.61,1.61,0,0,0,1.24,1.29l1.34.32-.2,2.12-1.38.06a1.61,1.61,0,0,0-1.46,1,9.06,9.06,0,0,1-1,2,1.61,1.61,0,0,0,0,1.79l.72,1.17Z"/><path class="cls-10" d="M563.43,409.85h0a5.9,5.9,0,1,0-6.42,5.31A5.9,5.9,0,0,0,563.43,409.85Zm-6.25,3.59a4.16,4.16,0,1,1,4.53-3.75A4.13,4.13,0,0,1,557.18,413.44Z"/><path class="cls-10" d="M536.64,425l-.56-.4a6,6,0,0,0,.11-1.2l.62-.29a1,1,0,0,0,.53-1.22l-.37-1.2a1,1,0,0,0-1.12-.71l-.68.11a6,6,0,0,0-.77-.93l.23-.65a1,1,0,0,0-.49-1.24l-1.11-.59a1,1,0,0,0-1.3.29l-.4.56a6,6,0,0,0-1.2-.11l-.29-.62a1,1,0,0,0-1.22-.53l-1.2.37a1,1,0,0,0-.71,1.13c0,.22.07.45.11.68a6,6,0,0,0-.93.77l-.65-.23a1,1,0,0,0-1.24.49l-.59,1.11a1,1,0,0,0,.29,1.3l.56.4a6,6,0,0,0-.11,1.2l-.62.29A1,1,0,0,0,523,425l.37,1.2a1,1,0,0,0,1.12.71l.68-.11a6,6,0,0,0,.77.93l-.23.65a1,1,0,0,0,.49,1.24l1.11.59a1,1,0,0,0,1.3-.29l.4-.56a6,6,0,0,0,1.2.11l.29.62a1,1,0,0,0,1.22.53l1.2-.37a1,1,0,0,0,.71-1.13c0-.22-.07-.45-.11-.68a6,6,0,0,0,.93-.77l.65.23a1,1,0,0,0,1.24-.49l.59-1.11A1,1,0,0,0,536.64,425Zm-1.29,1.68-.58-.21a1,1,0,0,0-1.1.25,4.76,4.76,0,0,1-.9.75,1,1,0,0,0-.46,1l.1.61-.87.27-.26-.56a1,1,0,0,0-1-.6,4.76,4.76,0,0,1-1.17-.11,1,1,0,0,0-1.05.41l-.36.5-.8-.42.21-.58a1,1,0,0,0-.25-1.1,4.76,4.76,0,0,1-.75-.9,1,1,0,0,0-1-.46l-.61.1-.27-.87.56-.26a1,1,0,0,0,.6-1,4.76,4.76,0,0,1,.11-1.17,1,1,0,0,0-.41-1.05l-.5-.36.42-.8.58.21a1,1,0,0,0,1.1-.25,4.76,4.76,0,0,1,.9-.75,1,1,0,0,0,.46-1l-.1-.61.87-.27.26.56a1,1,0,0,0,1,.6,4.76,4.76,0,0,1,1.17.11,1,1,0,0,0,1.05-.41l.36-.5.8.42-.21.58a1,1,0,0,0,.25,1.1,4.76,4.76,0,0,1,.75.9,1,1,0,0,0,1,.46l.61-.1.27.87-.56.26a1,1,0,0,0-.6,1,4.76,4.76,0,0,1-.11,1.17,1,1,0,0,0,.41,1.05l.5.36-.42.8Z"/><path class="cls-10" d="M531.41,421.11a2.6,2.6,0,1,0,1.08,3.52A2.61,2.61,0,0,0,531.41,421.11Zm-1.9,3.58a1.45,1.45,0,1,1,2-.6A1.45,1.45,0,0,1,529.51,424.69Z"/><g id="logo_ut"><path class="cls-12" d="M330.15,294.6v49.91c0,16.67-14.83,25.54-25.54,25.54s-25.54-8.88-25.54-25.54H258.9c0,28.23,23.72,45.7,45.7,45.7s45.7-17.47,45.7-45.7V294.6Z"/><path class="cls-13" d="M279.06,294.6v49.91h0V345c0,17.66,12.3,33.25,29.64,36.55,14.88,2.83,26.89-2.67,35-13.23,0,0-12.14,21.94-39.09,21.94-22,0-45.7-17.47-45.7-45.7h0V305.65A11.05,11.05,0,0,1,270,294.6Z"/><path class="cls-14" d="M343.7,368.27c-8,10.46-19.89,16-34.58,13.3-14.89-2.69-26.12-14.44-29.21-28.83-.55-2.59,3.08,18.9,26.41,25.44A37,37,0,0,0,343.7,368.27Z"/><path class="cls-15" d="M333.7,291.88v49.51c0,16.53-14.71,25.34-25.34,25.34S283,357.93,283,341.39h0V291.88h-8.95A11.05,11.05,0,0,0,263,302.93v38.46h0a46.34,46.34,0,0,0,1.63,12.32,43.52,43.52,0,0,0,9.77,17.75q1.48,1.63,3.09,3.1.81.73,1.65,1.43a47.39,47.39,0,0,0,12.92,7.59q1,.39,2,.73a44.53,44.53,0,0,0,14.29,2.42q1,0,2.08-.05a44.7,44.7,0,0,0,29.85-13.15,44,44,0,0,0,13.41-32.14V291.88Z"/><path class="cls-16" d="M382.7,361.7H361V286.47h-31.2V267.81H413.9V278.1a8.37,8.37,0,0,1-8.37,8.37H382.7Z"/><path class="cls-17" d="M382.7,361.7H361V319.49c0-30.93,20.69-51.68,51.68-51.68h1.21V278.1a8.37,8.37,0,0,1-8.37,8.37H382.7Z"/><path class="cls-18" d="M361,319.49c0-15.15,4.74-29.11,15.82-39,10.06-9,22.08-12.55,35.23-12.71h.63a47.58,47.58,0,0,0-33.56,13.52A58,58,0,0,0,365.43,301C360.88,311.37,361,319.49,361,319.49Z"/><path class="cls-15" d="M411.45,269.76H327.68V289h31.07v75.34h21.64V289h22.7a8.37,8.37,0,0,0,8.37-8.37Z"/></g></g><g id="es_text"><text class="cls-19" transform="translate(39.65 220.02)"><tspan class="cls-20">E</tspan><tspan class="cls-21" x="18.45" y="0">st</tspan><tspan class="cls-22" x="43.43" y="0">r</tspan><tspan x="54.37" y="0">a</tspan><tspan class="cls-23" x="70.84" y="0">t</tspan><tspan x="81.64" y="0">egia</tspan></text><text class="cls-24" transform="translate(270.65 117.34)">Dise<tspan class="cls-25" x="67.04" y="0">ñ</tspan><tspan x="87.85" y="0">o </tspan><tspan class="cls-26" x="115.08" y="0">U</tspan><tspan x="139.05" y="0">X</tspan></text><text class="cls-27" transform="translate(490.65 240.57)"><tspan xml:space="preserve"> Dise</tspan><tspan class="cls-28" x="64.19" y="0">ñ</tspan><tspan x="81.98" y="0">o</tspan><tspan x="0" y="31.44" xml:space="preserve">   de</tspan><tspan x="0" y="62.88">A</tspan><tspan class="cls-29" x="18.79" y="62.88">r</tspan><tspan x="28.95" y="62.88">qui</tspan><tspan class="cls-30" x="71.4" y="62.88">t</tspan><tspan class="cls-31" x="81.54" y="62.88">e</tspan><tspan class="cls-32" x="97.36" y="62.88">c</tspan><tspan class="cls-33" x="112.27" y="62.88">tu</tspan><tspan class="cls-34" x="140.54" y="62.88">r</tspan><tspan x="150.81" y="62.88">a</tspan></text><text class="cls-35" transform="translate(464.65 478.47)">Desa<tspan class="cls-36" x="68.4" y="0">r</tspan><tspan class="cls-37" x="79.11" y="0">r</tspan><tspan class="cls-38" x="89.69" y="0">ollo</tspan><tspan x="0" y="32.71">y prue</tspan><tspan class="cls-39" x="86.15" y="32.71">b</tspan><tspan x="104.55" y="32.71">as</tspan></text><text class="cls-40" transform="translate(234.65 553.78)">Public<tspan class="cls-41" x="87.58" y="0">a</tspan><tspan x="103.94" y="0">ción</tspan><tspan x="0" y="33.16">en tie</tspan><tspan class="cls-42" x="77.97" y="33.16">n</tspan><tspan x="96.73" y="33.16">das</tspan></text><text class="cls-43" transform="translate(40.65 458.14)">Sopo<tspan class="cls-44" x="59.47" y="0">r</tspan><tspan class="cls-45" x="69.18" y="0">t</tspan><tspan x="78.22" y="0">e y</tspan><tspan x="0" y="28.02">man</tspan><tspan class="cls-45" x="54.35" y="28.02">t</tspan><tspan x="63.39" y="28.02">enimien</tspan><tspan class="cls-45" x="160.54" y="28.02">t</tspan><tspan x="169.58" y="28.02">o</tspan></text></g></g></svg>