<?xml version="1.0" encoding="utf-8"?>
<!-- Generator: Adobe Illustrator 21.1.0, SVG Export Plug-In . SVG Version: 6.00 Build 0)  -->
<svg version="1.1" id="Layer_1" xmlns="http://www.w3.org/2000/svg" xmlns:xlink="http://www.w3.org/1999/xlink" x="0px" y="0px"
	 viewBox="0 0 250 250" style="enable-background:new 0 0 250 250;" xml:space="preserve">
<style type="text/css">
	.st0{fill:url(#SVGID_1_);}
	.st1{fill:url(#SVGID_2_);}
	.st2{fill:url(#SVGID_3_);}
</style>
<g>
	
		<linearGradient id="SVGID_1_" gradientUnits="userSpaceOnUse" x1="-1331.5144" y1="-709.7164" x2="-1233.6587" y2="-709.7164" gradientTransform="matrix(0.948 -0.3181 0.3181 0.948 1588.6945 337.3713)">
		<stop  offset="0.2786" style="stop-color:#00ACD1"/>
		<stop  offset="1" style="stop-color:#0046D1"/>
	</linearGradient>
	<path class="st0" d="M168.8,49l4.7-17.5l-8.3-4.1l-10.9,14c-2.9-0.7-5.9-1.1-8.9-1l-9.1-15.9l-8.8,2.9l2.2,17.7
		c-2.6,1.6-4.9,3.5-6.8,5.7l-17.5-4.7l-4.1,8.3l14,10.9c-0.7,2.9-0.8,5.8-0.7,8.8l-15.6,9l2.9,8.8l17.4-2.1c1.6,2.6,3.4,4.9,5.6,6.9
		l-4.7,17.6l8.2,4.1l10.9-14c2.9,0.7,5.8,0.9,8.8,0.7l9,15.6l8.8-2.9l-2.2-17.5c2.6-1.6,4.9-3.4,6.9-5.6l17.6,4.7l4.1-8.3l-14-10.9
		c0.7-2.9,1.1-5.9,1-8.9l15.9-9.1l-2.9-8.8l-17.7,2.2C172.9,53.3,170.9,51,168.8,49z M151.2,86.1c-7.3,2.4-15.2-1.5-17.6-8.8
		c-2.4-7.3,1.5-15.2,8.8-17.6c7.3-2.4,15.2,1.5,17.6,8.8C162.4,75.8,158.5,83.7,151.2,86.1z"/>
	
		<linearGradient id="SVGID_2_" gradientUnits="userSpaceOnUse" x1="-1427.0435" y1="-671.5925" x2="-1319.4535" y2="-671.5925" gradientTransform="matrix(0.948 -0.3181 0.3181 0.948 1588.6945 337.3713)">
		<stop  offset="0.2786" style="stop-color:#00ACD1"/>
		<stop  offset="1" style="stop-color:#0046D1"/>
	</linearGradient>
	<path class="st1" d="M114.5,175.2L103.9,158c1.9-2.9,3.4-5.9,4.4-9.1l20.4-3.5l0.3-10.5l-19.7-4.6c-0.7-3.3-1.8-6.5-3.3-9.5
		l12-16.9l-7.2-7.7l-17.2,10.7c-2.9-1.9-5.9-3.4-9.1-4.4L81,82l-10.5-0.3l-4.6,19.7c-3.3,0.7-6.5,1.8-9.5,3.3l-16.9-12l-7.7,7.2
		l10.7,17.2c-1.9,2.9-3.4,5.9-4.4,9.1l-20.4,3.5l-0.3,10.5l19.7,4.6c0.7,3.3,1.7,6.5,3.3,9.5l-12,16.9l7.2,7.7l17.2-10.7
		c2.9,1.9,5.9,3.4,9.1,4.4l3.5,20.4l10.5,0.3l4.6-19.7c3.3-0.7,6.5-1.7,9.6-3.3l16.9,12L114.5,175.2z M84,149.1
		c-6.4,6-16.4,5.7-22.4-0.7c-6-6.4-5.7-16.4,0.7-22.4c6.4-6,16.4-5.7,22.4,0.7C90.7,133,90.4,143.1,84,149.1z"/>
	
		<linearGradient id="SVGID_3_" gradientUnits="userSpaceOnUse" x1="-1339.2416" y1="-608.2632" x2="-1231.0604" y2="-608.2632" gradientTransform="matrix(0.948 -0.3181 0.3181 0.948 1588.6945 337.3713)">
		<stop  offset="0.2786" style="stop-color:#00ACD1"/>
		<stop  offset="1" style="stop-color:#0046D1"/>
	</linearGradient>
	<path class="st2" d="M216.1,209.3l-9.7-17.7c2.1-2.8,3.7-5.7,4.9-8.9l20.6-2.4l0.9-10.5l-19.4-5.7c-0.5-3.3-1.4-6.6-2.8-9.7
		l12.9-16.2l-6.8-8l-17.7,9.7c-2.8-2.1-5.7-3.7-8.8-4.9l-2.4-20.6l-10.5-0.9l-5.7,19.4c-3.3,0.5-6.6,1.4-9.7,2.8L145.6,123l-8,6.8
		l9.7,17.7c-2.1,2.8-3.7,5.7-4.9,8.8l-20.6,2.4l-0.9,10.5l19.4,5.6c0.5,3.3,1.4,6.6,2.8,9.7l-12.9,16.2l6.8,8l17.7-9.7
		c2.8,2.1,5.7,3.7,8.8,4.9l2.4,20.6l10.5,0.9l5.7-19.4c3.3-0.5,6.6-1.4,9.7-2.8l16.2,12.9L216.1,209.3z M187,181.7
		c-6.7,5.7-16.7,4.8-22.4-1.9c-5.7-6.7-4.8-16.7,1.9-22.4c6.7-5.7,16.7-4.8,22.4,1.9C194.6,166,193.7,176,187,181.7z"/>
</g>
</svg>
