<svg xmlns="http://www.w3.org/2000/svg" xmlns:xlink="http://www.w3.org/1999/xlink" viewBox="0 0 208.32 208.32"><defs><style>.cls-1{fill:url(#Degradado_sin_nombre_13);}.cls-2{fill:#fff;}.cls-3{fill:none;stroke:#fff;stroke-linecap:round;stroke-miterlimit:10;stroke-width:3px;}.cls-4{fill:url(#Degradado_sin_nombre_13-2);}</style><linearGradient id="Degradado_sin_nombre_13" x1="42.1" y1="48.58" x2="166.22" y2="159.74" gradientUnits="userSpaceOnUse"><stop offset="0.28" stop-color="#00acd1"/><stop offset="1" stop-color="#0046d1"/></linearGradient><linearGradient id="Degradado_sin_nombre_13-2" x1="26.6" y1="34.7" x2="181.72" y2="173.62" xlink:href="#Degradado_sin_nombre_13"/></defs><title>advantage_real_time</title><g id="Layer_2" data-name="Layer 2"><g id="Layer_1-2" data-name="Layer 1"><circle class="cls-1" cx="104.16" cy="104.16" r="83.31"/><path class="cls-2" d="M104.11,55a2.66,2.66,0,0,0-2.66,2.6v46L87.6,127a2.66,2.66,0,0,0,4.57,2.71l14.13-23.82a2.64,2.64,0,0,0,.46-1.51V57.63A2.66,2.66,0,0,0,104.11,55Z"/><line class="cls-2" x1="104.11" y1="34.25" x2="104.11" y2="28.85"/><line class="cls-3" x1="104.11" y1="34.25" x2="104.11" y2="28.85"/><line class="cls-2" x1="104.11" y1="179.72" x2="104.11" y2="174.31"/><line class="cls-3" x1="104.11" y1="179.72" x2="104.11" y2="174.31"/><line class="cls-2" x1="27.51" y1="104.43" x2="32.91" y2="104.43"/><line class="cls-3" x1="27.51" y1="104.43" x2="32.91" y2="104.43"/><line class="cls-2" x1="175.55" y1="104.43" x2="180.96" y2="104.43"/><line class="cls-3" x1="175.55" y1="104.43" x2="180.96" y2="104.43"/><path class="cls-4" d="M104.16,208.32A104.16,104.16,0,1,1,208.32,104.16,104.28,104.28,0,0,1,104.16,208.32Zm0-198.65a94.49,94.49,0,1,0,94.49,94.49A94.59,94.59,0,0,0,104.16,9.67Z"/></g></g></svg>