<?xml version="1.0" encoding="utf-8"?>
<!-- Generator: Adobe Illustrator 21.1.0, SVG Export Plug-In . SVG Version: 6.00 Build 0)  -->
<svg version="1.1" id="Layer_1" xmlns="http://www.w3.org/2000/svg" xmlns:xlink="http://www.w3.org/1999/xlink" x="0px" y="0px"
	 viewBox="0 0 250 250" style="enable-background:new 0 0 250 250;" xml:space="preserve">
<style type="text/css">
	.st0{fill-rule:evenodd;clip-rule:evenodd;fill:url(#SVGID_1_);}
	.st1{fill:url(#SVGID_2_);}
</style>
<g>
	<g>
		<linearGradient id="SVGID_1_" gradientUnits="userSpaceOnUse" x1="8.157" y1="26.5105" x2="281.9281" y2="258.163">
			<stop  offset="0.2786" style="stop-color:#00ACD1"/>
			<stop  offset="1" style="stop-color:#0046D1"/>
		</linearGradient>
		<path class="st0" d="M115.8,21.1c-50.1,4.1-90.4,44.3-94.5,93.5C18,151.5,32,179.4,50.9,199.2c19.8,18.8,46.9,32.8,84.6,29.5
			c26.3-1.6,47.6-13.9,63.3-29.5c15.6-14.8,26.2-36.1,30.4-62.4v-23c-4.1-27.1-15.6-47.6-30.4-62.3
			C180.7,33.5,153.6,18.7,115.8,21.1L115.8,21.1z M138.8,206.5c-50.9,9-100.2-30.3-96.1-90.2c1.6-15.6,8.2-27.1,12.3-34.5
			c12.3-18.9,30.4-35.3,60.8-38.5c23.8-2.5,43.5,4.1,56.7,13.9c18.1,12.3,32.9,32,35.3,59.1C211.9,166.3,178.2,200.7,138.8,206.5
			L138.8,206.5z"/>
	</g>
	<g>
		<linearGradient id="SVGID_2_" gradientUnits="userSpaceOnUse" x1="11.411" y1="22.6648" x2="285.1822" y2="254.3173">
			<stop  offset="0.2786" style="stop-color:#00ACD1"/>
			<stop  offset="1" style="stop-color:#0046D1"/>
		</linearGradient>
		<path class="st1" d="M131.8,99.5c-13.1,0-23,10.3-23,23.8c0,13.7,9.9,24.1,23,24.1c7,0,15.1-3.9,21.1-9.9l12.9,13.9
			c-9.1,9.6-22.6,15.7-35.2,15.7c-25.5,0-44.5-18.6-44.5-43.6c0-24.4,19.5-42.8,45.4-42.8c12.6,0,25.8,5.6,34.2,14.5l-12.8,15.4
			C147.3,103.8,139.2,99.5,131.8,99.5z"/>
	</g>
</g>
</svg>
