<?xml version="1.0" encoding="utf-8"?>
<!-- Generator: Adobe Illustrator 21.1.0, SVG Export Plug-In . SVG Version: 6.00 Build 0)  -->
<svg version="1.1" id="Layer_1" xmlns="http://www.w3.org/2000/svg" xmlns:xlink="http://www.w3.org/1999/xlink" x="0px" y="0px"
	 viewBox="0 0 250 250" style="enable-background:new 0 0 250 250;" xml:space="preserve">
<style type="text/css">
	.st0{fill-rule:evenodd;clip-rule:evenodd;fill:url(#SVGID_1_);}
	.st1{fill-rule:evenodd;clip-rule:evenodd;fill:url(#SVGID_2_);}
	.st2{fill-rule:evenodd;clip-rule:evenodd;fill:url(#SVGID_3_);}
</style>
<g>
	<g>
		<linearGradient id="SVGID_1_" gradientUnits="userSpaceOnUse" x1="46.4698" y1="143.3738" x2="211.5753" y2="143.3738">
			<stop  offset="0.2786" style="stop-color:#00ACD1"/>
			<stop  offset="1" style="stop-color:#0046D1"/>
		</linearGradient>
		<path class="st0" d="M166.6,98.1v0.8l-0.8,0.8l-0.8,2.4h2.4l2.5-0.8l1.6-1.6h-1.6l-0.8-1.6l-1.7-1.7v-3.3L165,94l-0.8,0.8v0.8
			l0.8,0.8L166.6,98.1z M59.5,111.1v2.5v4.9l3.3,1.6v5.7l3.3,4.9l1.7,0.8l0.8-2.5l-2.5-4l-0.8-4.1h1.6l0.8,4.1l4,6.5l-0.8,1.6
			l2.5,4.2l6.5,1.6v-0.8h2.5v1.6l1.6,0.8l3.2,0.8l5,4.9l5.7,0.8l0.8,4.9l-4,2.4v4.1l-0.8,2.4l5.7,7.4v2.5h2.5l4.9,4v12.3l1.7,0.8
			l-1.7,5.7l3.3,4.1l-0.8,5.7l3.3,5.7l4.9,4.1l4.8,0.8v-1.6l-3.3-3.3v-0.8l0.8-2.5v-1.6h-2.4l-0.8-1.6l1.6-1.6v-0.8l-1.6-0.8v-0.8
			l3.3-0.8l4-2.4l1.7-2.5l4.9-5.7l-1.6-5.7l1.6-1.6h4.1l3.3-2.5l0.8-9l3.2-4.1l0.9-3.3l-3.3-0.8l-1.6-3.3h-6.6l-5.7-1.6v-4.2
			l-1.7-2.4h-4.9l-2.4-4.9l-2.5-0.8l-0.8,0.8h-4l-1.6-1.7l-4.9-0.8l-3.3,4l-6.5-0.8v-6.5l-5-0.8l1.6-4.2v-1.6l-5.7,4l-4.1-0.8
			l-0.8-2.5l0.8-3.3l1.6-3.3l4.9-2.5h9l-0.8,2.5l4,1.6l-0.8-4.9l2.5-1.6l4.9-3.3v-2.4l4.9-4.9l4.9-2.5V107l2.5-2.5h1.6l0.8,0.8
			l0.8-1.6h0.8H120l-1.6-0.8v-1.6h0.8h1.7h0.8l0.8,1.6h0.8v-0.8v0.8l2.5-0.8l0.9-0.8h0.8v1.6l-0.8,0.8v1.6l4,0.8h0.8v-1.6l-3.3-1.6
			v-0.8l2.5-1.6v-2.5l-2.5-1.7l-0.8-4l-3.3,1.6h-1.6v-3.3l-4.8-1.6l-2.5,1.6v5.7l-4,0.9l-1.6,3.3l-1.6,0.8v-5h-3.3l-2.4-1.6
			l-0.8-2.5l7.4-4l2.4-0.9l0.8,1.7h1.6v-0.8h2.5v-0.9h-0.8v-1.6h1.7l1.6-1.6h0.8l4.9-0.8l2.5,1.6l-5.7,3.3l6.5,1.6l1.6-2.5h3.3
			l0.8-2.4h-2.4v-2.4l-7.4-3.3h-4.9l-2.5,1.6l0.8,3.3h-3.3l-0.8-1.6l3.3-3.3H111l-1.6,0.8l-0.8,1.6h1.6v1.6h-3.3l-0.8,1.6h-4
			l-0.8-2.4h4.1l2.5-2.5l-1.7-0.8l-1.6,1.6h-3.3l-2.5-3.3h-4l-4.9,4.1h4.9v0.8l-0.8,0.8h4.1l0.8,1.6h-4.9v-0.8l-4.1-0.8l-0.8-0.8
			h-4.1c12.2-9.8,27.8-14.7,44.2-14.7c13.9,0,27,4,38.4,9.8l5.7-4c-13-7.4-27.8-12.2-44.1-12.2c-21.2,0-40.9,8.1-55.6,22
			c-3.3,2.5-6.6,5.7-9.8,9.8c-10.6,13.9-17.1,31-17.1,50.7c0,44.9,36.7,81.6,82.6,81.6c31.9,0,59.7-17.9,73.6-44.1
			c2.5-5.7,4.9-12.2,6.6-18.8c0.8-1.7,0.8-3.3,0.8-4.9c0.8-4.1,1.6-9,1.6-13.9c0-0.8,0-0.8,0-0.8c0-2.4,0-4.9,0-7.4
			c-0.8-8.1-2.4-15.5-5.7-22.8c0,0-0.8-0.8-0.8-1.7c-3.3-8.1-9-17.1-15.5-23.7l-0.8-0.8c-1.7-1.6-2.5-3.3-4.2-4c0,0,0,0-0.8,0
			l-7.4,2.4c0.8,0.8,1.7,0.8,2.5,1.6l-0.8,1.7l-3.3,1.6l-1.7,1.7l0.8,1.6h1.6l0.8,3.3l3.3-1.6l0.8,4h-1.6l-2.5-0.8l-2.4,0.8
			l-3.3,3.3l-3.3,0.8l-0.8,3.3l1.6,0.8l-0.9,1.6l-3.3-0.8l-4,0.8v2.5v4.1l2.5,0.8h3.3h2.4l0.8-1.7l3.3-4.8h2.5l2.4-1.7l0.8,1.7
			l5.7,3.3l-0.8,1.6h-2.4l0.8,0.8l1.6,0.8l1.6-0.8v-2.4l1.6-0.8l-0.8-0.8l-4.1-1.6l-0.8-3.3h2.4l1.6,0.8l2.5,3.3v2.5l3.3,3.3
			l0.8-4.1l2.4-0.8v3.3l2.5,1.7h3.3c0.8,2.4,1.6,4,2.5,5.7v0.8h-6.5l-3.3-2.5h-4v2.5h-0.8l-1.6-0.8l-6.5-1.6v-4h-9l-2.5,1.6h-3.3
			h-1.6l-4.2,2.5v4l-9,5.7l0.8,2.5h2.5l-0.8,2.5l-1.7,0.8v6.5l7.4,8.2h3.3v-0.8h5.7l1.6-1.7h3.3l1.6,1.7l4.9,0.8l-0.8,6.5l5.7,9
			l-2.4,5.7v2.5l1.6,1.6v6.5l3.3,4.1v4.8h2.5c-13.9,17.2-35.2,27.8-58.9,27.8c-41.8,0-75.3-33.5-75.3-75.1c0-10.7,2.5-21.2,5.7-30.2
			V111.1l2.5-3.3c0.8-1.6,2.5-3.3,3.3-4.9v1.6l-3.3,3.3L59.5,111.1z M196.1,109.5h0.8c0.8,0.8,0.8,1.6,1.6,3.3h-0.8h-1.7V109.5z
			 M183.8,94.8v-3.3c1.6,1.6,3.3,2.4,4.1,4l-1.7,2.5h-4.9v-0.8L183.8,94.8z M84.8,85.8L84.8,85.8h1.6l0,0h2.5v0.8v0.8h-4.1V85.8z
			 M87.3,89.8l1.7-0.8v2.5h-3.3l-0.8-0.8L87.3,89.8z M91.4,98.8l2.4-1.6l1.6,0.8l-0.8,2.5h-1.6L91.4,98.8z M102,104.6v0.8h-4.1h-1.7
			v-0.8l2.5-1.6h2.5v1.6H102z M104.5,106.2v1.6l-1.6,0.8H102v-2.4H104.5z M102.8,105.4v-1.6l1.6,1.6H102.8z M103.7,109.5v1.6
			l-0.8,0.8h-2.4v-1.6h1.6v-0.8H103.7z M97.9,106.2h2.5l-3.3,4.9l-1.6-0.8l0.8-2.5L97.9,106.2z M107.8,108.6v1.7h-2.5v-0.8v-1.7
			L107.8,108.6z M105.3,107l0.8-0.8l1.7,0.8l-0.8,0.8L105.3,107z M202.6,126.6v-0.8c0.8,0.8,0.8,0.8,0.8,1.6L202.6,126.6z
			 M117.6,107.8l-0.8,0.8h1.6l0.8-0.8l-1.6-0.8V107.8z M122.4,105.4v1.7H120v0.8h0.8c0,0,0,0,0,0.8h1.6l0.8-0.8V107h0.8l0.8-1.7
			h-0.8H122.4z M165,98.8v-1.6l-1.6-0.9l-1.6,0.9l-1.6,2.4v0.8h1.6L165,98.8z"/>
	</g>
	<linearGradient id="SVGID_2_" gradientUnits="userSpaceOnUse" x1="21.8407" y1="131.9384" x2="160.9479" y2="131.9384">
		<stop  offset="0.2786" style="stop-color:#00ACD1"/>
		<stop  offset="1" style="stop-color:#0046D1"/>
	</linearGradient>
	<path class="st1" d="M34.2,145.4c0-53.8,43.3-98,98.1-98c4.9,0,14.7,1.7,20.5,3.3l1.6-7.3l6.6-4.1c-7.4-0.8-22.1-4.1-28.7-4.1
		C71,35.1,21.8,85,21.8,145.4c0,30.3,23.8,83.4,58.1,83.4C54.6,209.9,34.2,180.5,34.2,145.4L34.2,145.4z"/>
	<linearGradient id="SVGID_3_" gradientUnits="userSpaceOnUse" x1="148.6333" y1="55.1512" x2="228.1593" y2="55.1512">
		<stop  offset="0.2786" style="stop-color:#00ACD1"/>
		<stop  offset="1" style="stop-color:#0046D1"/>
	</linearGradient>
	<path class="st2" d="M228,83.3c-1.7,1.6-12.3-1.6-24.6-8.1c-0.8-0.8-1.6-0.8-2.5-1.6l-40.9,15.5l-3.3-0.8l30.2-22.1
		c-8.1-5.7-18-11.4-23.7-15.6l-13.9,8.2l-0.8-0.8l11.5-10.7c-0.8-0.8-0.8-0.8-0.8-1.6c0,0,0.8,0,1.7,0l2.4-14.7h0.8l1.7,16.3
		c5.7,2.5,16.4,6.6,26.1,11.5l0.8-37.6l3.3,1.6l9,42.5c0.8,0.8,2.5,1.7,3.3,1.7C219.8,73.6,229.6,80.9,228,83.3L228,83.3z"/>
</g>
</svg>
