<?xml version="1.0" encoding="utf-8"?>
<!-- Generator: Adobe Illustrator 21.1.0, SVG Export Plug-In . SVG Version: 6.00 Build 0)  -->
<svg version="1.1" id="Layer_1" xmlns="http://www.w3.org/2000/svg" xmlns:xlink="http://www.w3.org/1999/xlink" x="0px" y="0px"
	 viewBox="0 0 250 250" style="enable-background:new 0 0 250 250;" xml:space="preserve">
<style type="text/css">
	.st0{fill-rule:evenodd;clip-rule:evenodd;fill:url(#SVGID_1_);}
</style>
<g>
	<linearGradient id="SVGID_1_" gradientUnits="userSpaceOnUse" x1="12.8411" y1="24.4875" x2="242.8092" y2="231.4588">
		<stop  offset="0.2786" style="stop-color:#00ACD1"/>
		<stop  offset="1" style="stop-color:#0046D1"/>
	</linearGradient>
	<path class="st0" d="M115.6,19.1c-51.1,4.2-92.1,45.2-96.3,95.3c-3.3,37.6,10.9,66,30.1,86.2c20.1,19.2,47.8,33.4,86.2,30.1
		c26.8-1.7,48.6-14.2,64.5-30.1c15.9-15.1,26.7-36.8,30.9-63.6v-23.4C227,86,215.2,65.1,200.2,50.1
		C181.8,31.7,154.1,16.6,115.6,19.1L115.6,19.1z M114.8,98.5c0-5,5-9.2,9.2-10c9.2-0.8,14.3,7.5,16.7,14.2c5.9-1.7,10.9-5,16.7-6.7
		c-2.5-13.3-12.5-20.9-25.1-24.1V61.7H119v10.9C93,73.5,85.5,106.9,100.6,122c10,10.1,36,10.9,37.7,21.7
		c3.3,13.4-15.9,18.3-25.1,9.2c-2.5-3.3-2.5-6.7-4.1-11.7c-6.7,1.6-12.6,4.1-19.3,4.9c3.4,15.9,13.4,26,29.4,29.3v12.5h13.4
		c0-4.2-1.7-10.9,0-14.3c29.3-0.8,36-37.6,19.3-51.8C141.6,112.8,114.8,111.1,114.8,98.5L114.8,98.5z M139,208.1
		c-51.9,9.2-102.1-30.9-97.9-91.9c1.7-15.9,8.3-27.6,12.5-35.1c12.5-19.3,30.9-36,62-39.3c24.3-2.5,44.4,4.1,57.8,14.2
		c18.4,12.5,33.5,32.6,36,60.2C213.6,167.1,179.3,202.2,139,208.1L139,208.1z"/>
</g>
</svg>
