<?xml version="1.0" encoding="utf-8"?>
<!-- Generator: Adobe Illustrator 21.1.0, SVG Export Plug-In . SVG Version: 6.00 Build 0)  -->
<svg version="1.1" id="Layer_1" xmlns="http://www.w3.org/2000/svg" xmlns:xlink="http://www.w3.org/1999/xlink" x="0px" y="0px"
	 viewBox="0 0 250 250" style="enable-background:new 0 0 250 250;" xml:space="preserve">
<style type="text/css">
	.st0{fill:url(#SVGID_1_);}
	.st1{fill:url(#SVGID_2_);}
	.st2{fill:url(#SVGID_3_);}
	.st3{fill:url(#SVGID_4_);}
	.st4{fill:url(#SVGID_5_);}
</style>
<g>
	<g>
		<linearGradient id="SVGID_1_" gradientUnits="userSpaceOnUse" x1="55.7362" y1="34.3231" x2="247.4949" y2="210.7966">
			<stop  offset="0.2786" style="stop-color:#00ACD1"/>
			<stop  offset="1" style="stop-color:#0046D1"/>
		</linearGradient>
		<path class="st0" d="M121.2,173.9c-16.3,0-32.3-5.1-45.8-14.8c-17.2-12.3-28.6-30.5-32.1-51.4c-3.5-20.8,1.4-41.8,13.7-59
			c12.3-17.2,30.5-28.6,51.4-32.1c20.9-3.5,41.8,1.4,59,13.7c17.2,12.3,28.6,30.5,32.1,51.4l0,0c7.2,43-22,83.9-65,91.1
			C130,173.5,125.6,173.9,121.2,173.9z M121.5,36.4c-3.2,0-6.5,0.3-9.7,0.8C96.4,39.8,83,48.2,73.9,60.8
			c-9,12.7-12.6,28.1-10.1,43.5c2.6,15.4,10.9,28.8,23.6,37.8c12.7,9.1,28.1,12.6,43.5,10.1c31.7-5.3,53.2-35.4,47.9-67.1l0,0
			c-2.6-15.4-11-28.8-23.6-37.8C145.2,40.1,133.5,36.4,121.5,36.4z"/>
	</g>
	<g>
		<linearGradient id="SVGID_2_" gradientUnits="userSpaceOnUse" x1="59.8061" y1="29.9007" x2="251.5648" y2="206.3742">
			<stop  offset="0.2786" style="stop-color:#00ACD1"/>
			<stop  offset="1" style="stop-color:#0046D1"/>
		</linearGradient>
		<path class="st1" d="M117.5,123.9c-1.6,0-3.1-0.4-4.5-1.3l-30-19.4c-3.9-2.5-5-7.7-2.5-11.5c2.5-3.9,7.7-5,11.5-2.5l24.3,15.7
			L149,71c3.2-3.3,8.5-3.4,11.8-0.2c3.3,3.2,3.4,8.5,0.2,11.8l-37.5,38.8C121.9,123,119.7,123.9,117.5,123.9z"/>
	</g>
	<g>
		<linearGradient id="SVGID_3_" gradientUnits="userSpaceOnUse" x1="-10.1481" y1="105.9139" x2="181.6105" y2="282.3875">
			<stop  offset="0.2786" style="stop-color:#00ACD1"/>
			<stop  offset="1" style="stop-color:#0046D1"/>
		</linearGradient>
		<path class="st2" d="M106.1,234.4c-1.9,0-3.8-0.7-5.4-2l-22.2-18.7l-31.8,12.7c-3,1.2-6.4,0.6-8.7-1.6c-2.4-2.2-3.3-5.5-2.3-8.6
			l24.5-80.7c1.3-4.4,6-6.9,10.4-5.6c4.4,1.3,6.9,6,5.6,10.4l-19.5,64.1l20.4-8.1c2.8-1.1,6.1-0.6,8.5,1.4l15.7,13.2l12-49.6
			c1.1-4.5,5.6-7.2,10.1-6.2c4.5,1.1,7.2,5.6,6.2,10.1l-15.1,62.7c-0.7,2.8-2.8,5.1-5.5,6C107.9,234.3,107,234.4,106.1,234.4z"/>
	</g>
	<g>
		<linearGradient id="SVGID_4_" gradientUnits="userSpaceOnUse" x1="31.2241" y1="60.9584" x2="222.9827" y2="237.4319">
			<stop  offset="0.2786" style="stop-color:#00ACD1"/>
			<stop  offset="1" style="stop-color:#0046D1"/>
		</linearGradient>
		<path class="st3" d="M143.9,234.4c-0.9,0-1.8-0.1-2.6-0.4c-2.7-0.9-4.8-3.2-5.5-6l-15.1-62.7c-1.1-4.5,1.7-9,6.2-10.1
			c4.5-1.1,9,1.7,10.1,6.2l12,49.6l15.7-13.2c2.3-2,5.6-2.5,8.5-1.4l20.4,8.1l-19.5-64.1c-1.3-4.4,1.2-9.1,5.6-10.4
			c4.4-1.3,9.1,1.1,10.4,5.6l24.5,80.7c0.9,3.1,0,6.4-2.3,8.6c-2.4,2.2-5.7,2.8-8.7,1.6l-31.8-12.7l-22.2,18.7
			C147.7,233.8,145.8,234.4,143.9,234.4z"/>
	</g>
	<g>
		<linearGradient id="SVGID_5_" gradientUnits="userSpaceOnUse" x1="70.1386" y1="19.6209" x2="193.1142" y2="199.9157">
			<stop  offset="0.2786" style="stop-color:#00ACD1"/>
			<stop  offset="1" style="stop-color:#0046D1"/>
		</linearGradient>
		<path class="st4" d="M121.2,173.9c-16.3,0-32.3-5.1-45.8-14.8c-17.2-12.3-28.6-30.5-32.1-51.4c-3.5-20.8,1.4-41.8,13.7-59
			c12.3-17.2,30.5-28.6,51.4-32.1c20.9-3.5,41.8,1.4,59,13.7c17.2,12.3,28.6,30.5,32.1,51.4l0,0c7.2,43-22,83.9-65,91.1
			C130,173.5,125.6,173.9,121.2,173.9z M121.5,36.4c-3.2,0-6.5,0.3-9.7,0.8C96.4,39.8,83,48.2,73.9,60.8
			c-9,12.7-12.6,28.1-10.1,43.5c2.6,15.4,10.9,28.8,23.6,37.8c12.7,9.1,28.1,12.6,43.5,10.1c31.7-5.3,53.2-35.4,47.9-67.1l0,0
			c-2.6-15.4-11-28.8-23.6-37.8C145.2,40.1,133.5,36.4,121.5,36.4z"/>
	</g>
</g>
</svg>
