<?xml version="1.0" encoding="iso-8859-1"?>
<!-- Generator: Adobe Illustrator 19.0.0, SVG Export Plug-In . SVG Version: 6.00 Build 0)  -->
<svg version="1.1" id="Capa_1" xmlns="http://www.w3.org/2000/svg" xmlns:xlink="http://www.w3.org/1999/xlink" x="0px" y="0px"
	 viewBox="0 0 511.999 511.999" style="enable-background:new 0 0 511.999 511.999;" xml:space="preserve" stroke="white" fill="white">
<g>
	<g>
		<path d="M74.114,390.943c-1.859-1.86-4.439-2.93-7.069-2.93c-2.641,0-5.211,1.069-7.07,2.93c-1.86,1.859-2.93,4.439-2.93,7.07
			c0,2.63,1.069,5.21,2.93,7.069c1.859,1.861,4.43,2.931,7.07,2.931c2.63,0,5.21-1.07,7.069-2.931
			c1.86-1.859,2.931-4.439,2.931-7.069C77.045,395.382,75.975,392.802,74.114,390.943z"/>
	</g>
</g>
<g>
	<g>
		<path d="M386.938,216.842c-1.859-1.86-4.439-2.92-7.069-2.92c-2.63,0-5.2,1.061-7.07,2.92c-1.86,1.87-2.93,4.44-2.93,7.08
			c0,2.63,1.069,5.21,2.93,7.07c1.86,1.859,4.44,2.92,7.07,2.92s5.21-1.061,7.069-2.92c1.87-1.87,2.931-4.44,2.931-7.07
			C389.869,221.292,388.808,218.712,386.938,216.842z"/>
	</g>
</g>
<g>
	<g>
		<path d="M289.004,53.001c-93.733,0-169.991,76.258-169.991,169.991s76.258,169.991,169.991,169.991
			s169.991-76.258,169.991-169.991S382.737,53.001,289.004,53.001z M289.004,73c46.159,0,87.508,20.965,115.045,53.865
			l-10.997,10.997c-3.917-1.878-8.3-2.932-12.925-2.932c-16.541,0-29.998,13.457-29.998,29.998c0,3.873,0.746,7.572,2.088,10.973
			l-58.051,52.033c-3.21-1.176-6.675-1.818-10.286-1.818c-7.099,0-13.625,2.484-18.769,6.622l-47.452-31.207
			c0.142-1.183,0.224-2.383,0.224-3.604c0-16.541-13.457-29.998-29.998-29.998s-29.998,13.457-29.998,29.998
			c0,2.722,0.371,5.357,1.053,7.865l-19.882,13.754C140.893,138.426,207.449,73,289.004,73z M390.126,164.929
			c0,5.514-4.486,9.999-10,9.999c-5.514,0-9.999-4.486-9.999-9.999c0-5.514,4.486-10,9.999-10
			C385.64,154.929,390.126,159.415,390.126,164.929z M177.883,323.631c-19.916-21.969-33.417-49.849-37.537-80.659l29.981-20.741
			c2.297,1.664,4.836,3.011,7.556,3.975V323.631z M187.882,207.927c-5.514,0-10-4.486-10-9.999c0-5.514,4.486-10,10-10
			s9.999,4.486,9.999,10C197.882,203.442,193.396,207.927,187.882,207.927z M273.878,372.224
			c-28.403-2.857-54.487-13.677-75.996-30.179V226.207c4.062-1.44,7.721-3.733,10.767-6.662l45.918,30.198
			c-0.447,2.055-0.688,4.186-0.688,6.373c0,13.035,8.361,24.151,19.999,28.279V372.224z M283.877,266.116
			c-5.514,0-9.999-4.486-9.999-10c0-5.514,4.486-9.999,9.999-9.999s9.999,4.486,9.999,9.999
			C293.877,261.631,289.391,266.116,283.877,266.116z M389.872,333.908V264.63c0-5.522-4.478-9.999-9.999-9.999
			s-9.999,4.478-9.999,9.999v84.635c-22.07,14.183-48.082,22.735-75.996,23.631v-88.501c11.638-4.128,19.999-15.242,19.999-28.279
			c0-5.564-1.528-10.775-4.179-15.247l55.63-49.862c4.371,2.49,9.419,3.921,14.799,3.921c16.541,0,29.998-13.457,29.998-29.998
			c0-4.625-1.054-9.008-2.932-12.925l8.778-8.778c14.577,23.12,23.026,50.472,23.026,79.765
			C438.996,266.895,420.035,306.452,389.872,333.908z"/>
	</g>
</g>
<g>
	<g>
		<path d="M509.07,50.127c3.905-3.905,3.905-10.237,0-14.142c-3.906-3.904-10.235-3.904-14.142,0l-39.077,39.077
			c-2.953-3.322-6.001-6.579-9.169-9.747C404.566,23.197,348.568,0.003,289.004,0.003S173.443,23.197,131.327,65.314
			c-42.118,42.116-65.312,98.113-65.312,157.678c0,14.976,1.469,29.726,4.334,44.088L4.33,312.751
			c-4.542,3.142-5.677,9.37-2.534,13.912c1.941,2.806,5.061,4.312,8.232,4.312c1.962,0,3.944-0.576,5.681-1.777l59.827-41.388
			c6.362,21.051,15.841,41.029,28.195,59.376l-16.936,16.936c-3.905,3.905-3.905,10.236,0,14.142
			c1.953,1.952,4.512,2.929,7.071,2.929s5.118-0.977,7.071-2.929l14.838-14.838c4.857,5.969,10.039,11.727,15.555,17.243
			c5.516,5.516,11.274,10.697,17.243,15.555l-89.16,89.159c-8.918,8.919-23.529,8.819-32.572-0.225
			c-9.043-9.043-9.145-23.655-0.226-32.573l19.005-19.004c3.905-3.905,3.905-10.236,0-14.142c-3.905-3.903-10.234-3.904-14.142,0
			l-19.005,19.005C-4.245,455.16-4.144,482.461,12.696,499.3c8.462,8.461,19.562,12.696,30.635,12.695
			c10.965,0,21.903-4.154,30.221-12.471l91.258-91.257c36.427,24.528,79.296,37.713,124.193,37.713
			c59.564,0,115.562-23.194,157.679-65.311c42.116-42.116,65.31-98.113,65.31-157.678c0-48.287-15.246-94.228-43.456-132.331
			L509.07,50.127z M491.993,222.992c0,111.929-91.06,202.989-202.989,202.989S86.015,334.921,86.015,222.992
			s91.06-202.989,202.989-202.989S491.993,111.063,491.993,222.992z"/>
	</g>
</g>
<g>
</g>
<g>
</g>
<g>
</g>
<g>
</g>
<g>
</g>
<g>
</g>
<g>
</g>
<g>
</g>
<g>
</g>
<g>
</g>
<g>
</g>
<g>
</g>
<g>
</g>
<g>
</g>
<g>
</g>
</svg>
