<?xml version="1.0" encoding="iso-8859-1"?>
<!-- Generator: Adobe Illustrator 19.0.0, SVG Export Plug-In . SVG Version: 6.00 Build 0)  -->
<svg version="1.1" id="Capa_1" xmlns="http://www.w3.org/2000/svg" xmlns:xlink="http://www.w3.org/1999/xlink" x="0px" y="0px"
	 viewBox="0 0 496 496" style="enable-background:new 0 0 496 496;" xml:space="preserve" stroke="white" fill="white">
<g>
	<g>
		<g>
			<path d="M144,344h208V152H144V344z M160,168h176v160H160V168z"/>
			<path d="M176,312h144V184H176V312z M192,200h112v96H192V200z"/>
			<rect x="272" y="216" width="16" height="64"/>
			<path d="M208,280h16v-16h16v16h16v-64h-48V280z M224,232h16v16h-16V232z"/>
			<rect x="192" y="88" width="16" height="48"/>
			<rect x="192" y="56" width="16" height="16"/>
			<rect x="224" y="104" width="16" height="32"/>
			<rect x="224" y="72" width="16" height="16"/>
			<rect x="288" y="88" width="16" height="48"/>
			<rect x="288" y="56" width="16" height="16"/>
			<rect x="256" y="104" width="16" height="32"/>
			<rect x="256" y="72" width="16" height="16"/>
			<rect x="80" y="288" width="48" height="16"/>
			<rect x="48" y="288" width="16" height="16"/>
			<rect x="96" y="256" width="32" height="16"/>
			<rect x="64" y="256" width="16" height="16"/>
			<rect x="80" y="192" width="48" height="16"/>
			<rect x="48" y="192" width="16" height="16"/>
			<rect x="96" y="224" width="32" height="16"/>
			<rect x="64" y="224" width="16" height="16"/>
			<rect x="288" y="360" width="16" height="48"/>
			<rect x="288" y="424" width="16" height="16"/>
			<rect x="256" y="360" width="16" height="32"/>
			<rect x="256" y="408" width="16" height="16"/>
			<rect x="192" y="360" width="16" height="48"/>
			<rect x="192" y="424" width="16" height="16"/>
			<rect x="224" y="360" width="16" height="32"/>
			<rect x="224" y="408" width="16" height="16"/>
			<rect x="368" y="192" width="48" height="16"/>
			<rect x="432" y="192" width="16" height="16"/>
			<rect x="368" y="224" width="32" height="16"/>
			<rect x="416" y="224" width="16" height="16"/>
			<rect x="368" y="288" width="48" height="16"/>
			<rect x="432" y="288" width="16" height="16"/>
			<rect x="368" y="256" width="32" height="16"/>
			<rect x="416" y="256" width="16" height="16"/>
			<path d="M496,248c0-22.56-8.408-43.712-23.776-60.08c5.128-21.864,1.832-44.392-9.448-63.92
				c-11.28-19.528-29.136-33.648-50.64-40.144c-6.496-21.504-20.608-39.36-40.144-50.632c-19.528-11.28-42.048-14.576-63.92-9.448
				C291.712,8.408,270.552,0,248,0s-43.712,8.408-60.08,23.784c-21.864-5.152-44.392-1.832-63.92,9.448
				c-19.528,11.272-33.648,29.136-40.144,50.632c-21.504,6.496-39.36,20.608-50.64,40.144c-11.28,19.536-14.568,42.056-9.448,63.92
				C8.408,204.288,0,225.44,0,248c0,22.552,8.408,43.704,23.776,60.08c-5.128,21.856-1.832,44.392,9.448,63.92
				c11.28,19.528,29.136,33.648,50.64,40.144c6.496,21.504,20.608,39.36,40.144,50.632c19.536,11.28,42.064,14.592,63.92,9.448
				C204.288,487.592,225.448,496,248,496s43.712-8.408,60.08-23.784c21.856,5.136,44.392,1.832,63.92-9.448
				c19.528-11.272,33.648-29.136,40.144-50.632c21.504-6.496,39.36-20.608,50.64-40.144s14.568-42.064,9.448-63.92
				C487.592,291.704,496,270.552,496,248z M455.648,307.928c5.536,19.056,3.152,38.968-6.728,56.072
				c-9.864,17.096-25.92,29.128-45.2,33.864l-4.704,1.16l-1.16,4.704C393.12,423,381.096,439.048,364,448.912
				c-17.104,9.88-37.016,12.272-56.072,6.736l-4.656-1.352l-3.352,3.496C286.184,472.112,267.744,480,248,480
				c-19.744,0-38.184-7.888-51.92-22.208l-3.352-3.496l-4.656,1.352c-19.056,5.544-38.968,3.144-56.072-6.736
				c-17.096-9.864-29.12-25.912-33.856-45.184l-1.16-4.704l-4.704-1.16C73,393.12,56.944,381.088,47.08,364
				c-9.872-17.104-12.264-37.016-6.728-56.072l1.352-4.656l-3.496-3.352C23.888,286.176,16,267.744,16,248
				c0-19.752,7.888-38.184,22.208-51.92l3.504-3.352l-1.352-4.656c-5.536-19.056-3.152-38.968,6.728-56.072
				c9.864-17.096,25.92-29.128,45.2-33.864l4.704-1.16l1.16-4.704c4.736-19.272,16.76-35.32,33.856-45.184
				c17.096-9.888,37.008-12.28,56.072-6.736l4.656,1.352l3.352-3.496C209.816,23.888,228.256,16,248,16s38.184,7.888,51.92,22.208
				l3.352,3.496l4.656-1.352c19.064-5.528,38.976-3.136,56.072,6.736c17.096,9.864,29.12,25.912,33.856,45.184l1.16,4.704
				l4.704,1.16c19.28,4.744,35.336,16.776,45.2,33.864c9.872,17.104,12.264,37.016,6.728,56.072l-1.352,4.656l3.504,3.352
				C472.112,209.816,480,228.248,480,248c0,19.744-7.888,38.176-22.208,51.92l-3.496,3.352L455.648,307.928z"/>
		</g>
	</g>
</g>
<g>
</g>
<g>
</g>
<g>
</g>
<g>
</g>
<g>
</g>
<g>
</g>
<g>
</g>
<g>
</g>
<g>
</g>
<g>
</g>
<g>
</g>
<g>
</g>
<g>
</g>
<g>
</g>
<g>
</g>
</svg>
