<svg xmlns="http://www.w3.org/2000/svg" xmlns:xlink="http://www.w3.org/1999/xlink" viewBox="0 0 210.4 210.4"><defs><style>.cls-1{fill:none;stroke:url(#linear-gradient);}.cls-1,.cls-2{stroke-miterlimit:10;}.cls-2{opacity:0.39;fill:url(#New_Gradient_Swatch_copy);stroke:url(#New_Gradient_Swatch);}</style><linearGradient id="linear-gradient" x1="604.04" y1="8408.8" x2="682.36" y2="8213.46" gradientTransform="matrix(-1, 0, 0, 1, 748.4, -8205.93)" gradientUnits="userSpaceOnUse"><stop offset="0" stop-color="#008a94"/><stop offset="0.17" stop-color="#028f92"/><stop offset="0.38" stop-color="#089e8c"/><stop offset="0.61" stop-color="#12b783"/><stop offset="0.86" stop-color="#21d976"/><stop offset="0.97" stop-color="#28eb6f"/></linearGradient><linearGradient id="New_Gradient_Swatch_copy" x1="118.27" y1="142.25" x2="166.22" y2="142.25" gradientTransform="matrix(1, 0, 0, 1, 0, 0)" xlink:href="#linear-gradient"/><linearGradient id="New_Gradient_Swatch" x1="117.77" y1="142.25" x2="166.72" y2="142.25" gradientUnits="userSpaceOnUse"><stop offset="0" stop-color="#008a94"/><stop offset="0.17" stop-color="#028f92" stop-opacity="0.84"/><stop offset="0.38" stop-color="#089e8c" stop-opacity="0.64"/><stop offset="0.61" stop-color="#12b783" stop-opacity="0.43"/><stop offset="0.86" stop-color="#21d976" stop-opacity="0.2"/><stop offset="0.97" stop-color="#28eb6f" stop-opacity="0.1"/></linearGradient></defs><title>offer_web</title><g id="Layer_2" data-name="Layer 2"><g id="web"><path d="M55.08,153.14A15.27,15.27,0,0,0,39.83,168.4,2.18,2.18,0,0,0,42,170.57H68.15a2.18,2.18,0,0,0,2.18-2.18A15.27,15.27,0,0,0,55.08,153.14ZM44.4,166.22a10.91,10.91,0,0,1,8.5-8.48v4.12h4.36v-4.12a10.91,10.91,0,0,1,8.5,8.48Z"/><path d="M168.4,133.53h-3.82c-.12-.3-.24-.6-.38-.91l2.7-2.7a2.18,2.18,0,0,0,0-3.08l-9.24-9.24A2.14,2.14,0,0,0,156,117a10.87,10.87,0,0,0,5.84-9.59V50.72A10.91,10.91,0,0,0,151,39.83H50.72a10.91,10.91,0,0,0-10.9,10.9v56.66a10.91,10.91,0,0,0,10.9,10.9H79.16l-8.23,15.25H67.06a7.63,7.63,0,1,0,0,15.25h46.85A2.18,2.18,0,0,0,116.1,151h3.82c.12.3.24.6.38.91l-2.7,2.7a2.18,2.18,0,0,0,0,3.08l9.24,9.24a2.18,2.18,0,0,0,3.08,0l2.7-2.7.91.38v3.82a2.18,2.18,0,0,0,2.18,2.18h13.07A2.18,2.18,0,0,0,151,168.4v-3.82l.91-.38,2.7,2.7a2.18,2.18,0,0,0,3.08,0l9.24-9.24a2.18,2.18,0,0,0,0-3.08l-2.7-2.7c.14-.3.26-.6.38-.91h3.82a2.18,2.18,0,0,0,2.18-2.18V135.71A2.18,2.18,0,0,0,168.4,133.53ZM44.18,50.72a6.55,6.55,0,0,1,6.54-6.54H151a6.55,6.55,0,0,1,6.54,6.54V96.48H44.18Zm6.54,63.2a6.55,6.55,0,0,1-6.54-6.54v-6.54H157.5v6.54a6.55,6.55,0,0,1-6.54,6.54H50.72Zm103.82,3.7-2.68,2.68-.91-.38v-1.64A10.75,10.75,0,0,0,154.54,117.62Zm-21,.65v1.64l-.91.38-2-2Zm-7.38,0-1.88,1.88L123,118.27Zm-12.24,26.15H67.06a3.27,3.27,0,0,1,0-6.54h46.85Zm-38-10.9,8.23-15.25h33.61l3.42,5-3.55,3.55a2.18,2.18,0,0,0,0,3.08l2.7,2.7c-.14.3-.26.6-.38.91h-44Zm90.34,13.08H163a2.18,2.18,0,0,0-2.08,1.52,19.61,19.61,0,0,1-1.33,3.18,2.18,2.18,0,0,0,.39,2.55l2.26,2.26-6.16,6.16L153.86,160a2.18,2.18,0,0,0-2.55-.39,19.61,19.61,0,0,1-3.18,1.33A2.18,2.18,0,0,0,146.6,163v3.18h-8.72V163a2.18,2.18,0,0,0-1.52-2.08,19.61,19.61,0,0,1-3.18-1.33,2.18,2.18,0,0,0-2.55.39l-2.26,2.26-6.16-6.16,2.26-2.26a2.18,2.18,0,0,0,.39-2.55,19.61,19.61,0,0,1-1.33-3.18,2.18,2.18,0,0,0-2.08-1.53h-3.18v-8.72h3.18a2.18,2.18,0,0,0,2.08-1.52,19.61,19.61,0,0,1,1.33-3.18,2.18,2.18,0,0,0-.39-2.55l-2.26-2.26,6.16-6.16,2.26,2.26a2.18,2.18,0,0,0,2.55.39,19.61,19.61,0,0,1,3.18-1.33,2.18,2.18,0,0,0,1.53-2.08v-3.18h8.72v3.18a2.18,2.18,0,0,0,1.52,2.08,19.61,19.61,0,0,1,3.18,1.33,2.18,2.18,0,0,0,2.55-.39l2.26-2.26,6.16,6.16L160,130.63a2.18,2.18,0,0,0-.39,2.55,19.61,19.61,0,0,1,1.33,3.18,2.18,2.18,0,0,0,2.08,1.53h3.18Z"/><path d="M142.25,129.17a13.07,13.07,0,1,0,13.07,13.07A13.09,13.09,0,0,0,142.25,129.17Zm0,21.79a8.72,8.72,0,1,1,8.72-8.72A8.73,8.73,0,0,1,142.25,151Z"/><path d="M82.77,56.62l-3.08-3.08L64.43,68.79a2.18,2.18,0,0,0,0,3.08L79.69,87.13,82.77,84,69.06,70.33Z"/><path d="M130.71,68.79,115.46,53.54l-3.08,3.08,13.71,13.71L112.38,84l3.08,3.08,15.25-15.25A2.18,2.18,0,0,0,130.71,68.79Z"/><rect x="75.65" y="65.98" width="43.84" height="4.36" transform="translate(-7.03 124.95) rotate(-63.43)"/><rect x="124.81" y="83.41" width="4.36" height="4.36"/><rect x="133.53" y="83.41" width="4.36" height="4.36"/><rect x="142.25" y="83.41" width="4.36" height="4.36"/><circle class="cls-1" cx="105.2" cy="105.2" r="104.7"/><path class="cls-2" d="M163,137.89a2.18,2.18,0,0,1-2.08-1.53,19.61,19.61,0,0,0-1.33-3.18,2.18,2.18,0,0,1,.39-2.55l2.26-2.26-6.16-6.16-2.26,2.26a2.18,2.18,0,0,1-2.55.39,19.61,19.61,0,0,0-3.18-1.33,2.18,2.18,0,0,1-1.52-2.08v-3.18h-8.72v3.18a2.18,2.18,0,0,1-1.53,2.08,19.61,19.61,0,0,0-3.18,1.33,2.18,2.18,0,0,1-2.55-.39l-2.26-2.26-6.16,6.16,2.26,2.26a2.18,2.18,0,0,1,.39,2.55,19.61,19.61,0,0,0-1.33,3.18,2.18,2.18,0,0,1-2.08,1.52h-3.18v8.72h3.18a2.18,2.18,0,0,1,2.08,1.53,19.61,19.61,0,0,0,1.33,3.18,2.18,2.18,0,0,1-.39,2.55l-2.26,2.26,6.16,6.16,2.26-2.26a2.18,2.18,0,0,1,2.55-.39,19.61,19.61,0,0,0,3.18,1.33,2.18,2.18,0,0,1,1.52,2.08v3.18h8.72V163a2.18,2.18,0,0,1,1.53-2.08,19.61,19.61,0,0,0,3.18-1.33,2.18,2.18,0,0,1,2.55.39l2.26,2.26,6.16-6.16L160,153.86a2.18,2.18,0,0,1-.39-2.55,19.61,19.61,0,0,0,1.33-3.18A2.18,2.18,0,0,1,163,146.6h3.18v-8.72Zm-20.79,17.43a13.07,13.07,0,1,1,13.07-13.07A13.09,13.09,0,0,1,142.25,155.32Z"/></g></g></svg>