<svg xmlns="http://www.w3.org/2000/svg" xmlns:xlink="http://www.w3.org/1999/xlink" viewBox="0 0 210.4 210.4"><defs><style>.cls-1{fill:none;stroke:url(#linear-gradient);}.cls-1,.cls-2{stroke-miterlimit:10;}.cls-2{opacity:0.36;fill:url(#New_Gradient_Swatch_copy);stroke:url(#New_Gradient_Swatch);}</style><linearGradient id="linear-gradient" x1="-1015.96" y1="8408.8" x2="-937.64" y2="8213.46" gradientTransform="matrix(-1, 0, 0, 1, -871.6, -8205.93)" gradientUnits="userSpaceOnUse"><stop offset="0" stop-color="#008a94"/><stop offset="0.17" stop-color="#028f92"/><stop offset="0.38" stop-color="#089e8c"/><stop offset="0.61" stop-color="#12b783"/><stop offset="0.86" stop-color="#21d976"/><stop offset="0.97" stop-color="#28eb6f"/></linearGradient><linearGradient id="New_Gradient_Swatch_copy" x1="76.32" y1="105.2" x2="134.08" y2="105.2" gradientTransform="matrix(1, 0, 0, 1, 0, 0)" xlink:href="#linear-gradient"/><linearGradient id="New_Gradient_Swatch" x1="75.82" y1="105.2" x2="134.58" y2="105.2" gradientUnits="userSpaceOnUse"><stop offset="0" stop-color="#008a94"/><stop offset="0.17" stop-color="#028f92" stop-opacity="0.84"/><stop offset="0.38" stop-color="#089e8c" stop-opacity="0.64"/><stop offset="0.61" stop-color="#12b783" stop-opacity="0.43"/><stop offset="0.86" stop-color="#21d976" stop-opacity="0.2"/><stop offset="0.97" stop-color="#28eb6f" stop-opacity="0.1"/></linearGradient></defs><title>offer_bots</title><g id="Layer_2" data-name="Layer 2"><g id="BOTS"><path d="M71.07,136.71h68.26v-63H71.07Zm5.25-57.76h57.76v52.51H76.32Z"/><path d="M81.57,126.2h47.26v-42H81.57Zm5.25-36.76h36.76V121H86.82Z"/><rect x="113.08" y="94.7" width="5.25" height="21"/><path d="M92.07,115.7h5.25v-5.25h5.25v5.25h5.25v-21H92.07Zm5.25-15.75h5.25v5.25H97.32Z"/><rect x="86.82" y="52.69" width="5.25" height="15.75"/><rect x="86.82" y="42.19" width="5.25" height="5.25"/><rect x="97.32" y="57.94" width="5.25" height="10.5"/><rect x="97.32" y="47.44" width="5.25" height="5.25"/><rect x="118.33" y="52.69" width="5.25" height="15.75"/><rect x="118.33" y="42.19" width="5.25" height="5.25"/><rect x="107.83" y="57.94" width="5.25" height="10.5"/><rect x="107.83" y="47.44" width="5.25" height="5.25"/><rect x="50.06" y="118.33" width="15.75" height="5.25"/><rect x="55.32" y="107.83" width="10.5" height="5.25"/><rect x="44.81" y="107.83" width="5.25" height="5.25"/><rect x="50.06" y="86.82" width="15.75" height="5.25"/><rect x="55.32" y="97.32" width="10.5" height="5.25"/><rect x="44.81" y="97.32" width="5.25" height="5.25"/><rect x="118.33" y="141.96" width="5.25" height="15.75"/><rect x="118.33" y="162.96" width="5.25" height="5.25"/><rect x="107.83" y="141.96" width="5.25" height="10.5"/><rect x="107.83" y="157.71" width="5.25" height="5.25"/><rect x="86.82" y="141.96" width="5.25" height="15.75"/><rect x="86.82" y="162.96" width="5.25" height="5.25"/><rect x="97.32" y="141.96" width="5.25" height="10.5"/><rect x="97.32" y="157.71" width="5.25" height="5.25"/><rect x="144.58" y="86.82" width="15.75" height="5.25"/><rect x="165.59" y="86.82" width="5.25" height="5.25"/><rect x="144.58" y="97.32" width="10.5" height="5.25"/><rect x="160.34" y="97.32" width="5.25" height="5.25"/><rect x="144.58" y="118.33" width="15.75" height="5.25"/><rect x="165.59" y="118.33" width="5.25" height="5.25"/><rect x="144.58" y="107.83" width="10.5" height="5.25"/><rect x="160.34" y="107.83" width="5.25" height="5.25"/><path d="M186.59,105.2a28.59,28.59,0,0,0-7.8-19.72,28.81,28.81,0,0,0-19.72-34.15,28.81,28.81,0,0,0-34.15-19.72,28.81,28.81,0,0,0-39.43,0A28.81,28.81,0,0,0,51.33,51.33,28.81,28.81,0,0,0,31.61,85.49a28.81,28.81,0,0,0,0,39.43,28.81,28.81,0,0,0,19.72,34.15,28.81,28.81,0,0,0,34.15,19.72,28.81,28.81,0,0,0,39.43,0,28.81,28.81,0,0,0,34.15-19.72,28.81,28.81,0,0,0,19.72-34.15A28.59,28.59,0,0,0,186.59,105.2Zm-13.24,19.67a23.56,23.56,0,0,1-17,29.52l-1.54.38-.38,1.54a23.57,23.57,0,0,1-29.51,17l-1.53-.44-1.1,1.15a23.56,23.56,0,0,1-34.08,0l-1.1-1.15-1.53.44a23.57,23.57,0,0,1-29.51-17l-.38-1.54-1.54-.38a23.56,23.56,0,0,1-17-29.52l.44-1.53-1.15-1.1a23.56,23.56,0,0,1,0-34.08l1.15-1.1-.44-1.53A23.56,23.56,0,0,1,54.1,56l1.54-.38L56,54.09a23.57,23.57,0,0,1,29.51-17l1.53.44,1.1-1.15a23.56,23.56,0,0,1,34.08,0l1.1,1.15,1.53-.44a23.57,23.57,0,0,1,29.51,17l.38,1.54,1.54.38a23.56,23.56,0,0,1,17,29.52l-.44,1.53,1.15,1.1a23.57,23.57,0,0,1,0,34.08l-1.15,1.1Z"/><circle class="cls-1" cx="105.2" cy="105.2" r="104.7"/><path class="cls-2" d="M76.32,78.95v52.51h57.76V78.95Zm52.51,47.26H81.57v-42h47.26Z"/></g></g></svg>