<svg xmlns="http://www.w3.org/2000/svg" xmlns:xlink="http://www.w3.org/1999/xlink" viewBox="0 0 210.4 210.4"><defs><style>.cls-1{fill:none;stroke-miterlimit:10;stroke:url(#linear-gradient);}.cls-2,.cls-3{opacity:0.39;}.cls-2{fill:url(#New_Gradient_Swatch_copy);}.cls-3{fill:url(#New_Gradient_Swatch_copy-2);}</style><linearGradient id="linear-gradient" x1="-475.96" y1="8408.8" x2="-397.64" y2="8213.46" gradientTransform="matrix(-1, 0, 0, 1, -331.6, -8205.93)" gradientUnits="userSpaceOnUse"><stop offset="0" stop-color="#008a94"/><stop offset="0.17" stop-color="#028f92"/><stop offset="0.38" stop-color="#089e8c"/><stop offset="0.61" stop-color="#12b783"/><stop offset="0.86" stop-color="#21d976"/><stop offset="0.97" stop-color="#28eb6f"/></linearGradient><linearGradient id="New_Gradient_Swatch_copy" x1="133.47" y1="146.99" x2="160.5" y2="146.99" gradientTransform="matrix(1, 0, 0, 1, 0, 0)" xlink:href="#linear-gradient"/><linearGradient id="New_Gradient_Swatch_copy-2" x1="50.38" y1="58.58" x2="66.77" y2="58.58" gradientTransform="matrix(1, 0, 0, 1, 0, 0)" xlink:href="#linear-gradient"/></defs><title>offer_ux</title><g id="Layer_2" data-name="Layer 2"><g id="UX_UI" data-name="UX/UI"><path d="M162.22,139.17,128.06,105l36.39-36.39a2.34,2.34,0,0,0,0-3.31L145.09,45.95a2.34,2.34,0,0,0-3.31,0L105.39,82.34,73.09,50h0l-.32-.32a2.35,2.35,0,0,0-1.28-.66L47.92,45.23a2.34,2.34,0,0,0-2.69,2.69l3.84,23.57a2.34,2.34,0,0,0,.66,1.28l.32.32h0l32.3,32.3L45.95,141.78a2.34,2.34,0,0,0,0,3.31l19.36,19.36a2.34,2.34,0,0,0,3.31,0L105,128.06l34.16,34.16a10.19,10.19,0,0,0,14.41,0l8.64-8.64a10.19,10.19,0,0,0,0-14.41ZM143.44,50.92l16,16-5.39,5.39L148,66.29a2.34,2.34,0,1,0-3.31,3.31l6.07,6.07-7.89,7.89-4.48-4.48a2.34,2.34,0,0,0-3.31,3.31l4.48,4.48-7.89,7.89-6.07-6.07A2.34,2.34,0,1,0,122.3,92l6.07,6.07-3.62,3.62-16-16Zm-72,4.1,75.14,75.14-2.76,2.76L68.67,57.78ZM50.38,50.38,66.77,53,53,66.77Zm47.69,78-4.48-4.48a2.34,2.34,0,0,0-3.31,3.31l4.48,4.48-7.89,7.89-6.07-6.07a2.34,2.34,0,0,0-3.31,3.31l6.07,6.07-7.89,7.89-4.48-4.48a2.34,2.34,0,0,0-3.31,3.31l4.48,4.48L67,159.48l-16-16L85.66,108.7l16,16Zm32.08,18.21L55,71.43,65.36,61.1l75.14,75.14-4.26,4.26L73.09,77.35a2.34,2.34,0,1,0-3.31,3.31l63.15,63.15Zm28.74,3.69-8.64,8.64a5.5,5.5,0,0,1-7.78,0l-9-9,16.42-16.42,9,9a5.5,5.5,0,0,1,0,7.78Z"/><path d="M107.5,72.56a2.38,2.38,0,0,0-.13-.44,2.32,2.32,0,0,0-.22-.41,2.23,2.23,0,0,0-.29-.36,2.34,2.34,0,0,0-.36-.29,2.52,2.52,0,0,0-.41-.22,2.2,2.2,0,0,0-.44-.13,2.31,2.31,0,0,0-.92,0,2.19,2.19,0,0,0-.44.13,2.49,2.49,0,0,0-.41.22,2.35,2.35,0,0,0-.36.29,2.21,2.21,0,0,0-.29.36,2.32,2.32,0,0,0-.22.41,2.37,2.37,0,0,0-.13.44,2.25,2.25,0,0,0,0,.91,2.37,2.37,0,0,0,.13.44,2.32,2.32,0,0,0,.22.41,2.22,2.22,0,0,0,.29.36,2.33,2.33,0,0,0,.36.29,2.49,2.49,0,0,0,.41.22,2.2,2.2,0,0,0,.44.13,2.26,2.26,0,0,0,.92,0,2.19,2.19,0,0,0,.44-.13,2.48,2.48,0,0,0,.41-.22,2.34,2.34,0,0,0,.36-.29,2.24,2.24,0,0,0,.29-.36,2.32,2.32,0,0,0,.22-.41,2.37,2.37,0,0,0,.13-.44,2.26,2.26,0,0,0,0-.91Z"/><circle class="cls-1" cx="105.2" cy="105.2" r="104.7"/><path class="cls-2" d="M133.47,149.89l16.42-16.42,9.08,9.08a5.52,5.52,0,0,1,0,7.59l-8.8,8.78a5.46,5.46,0,0,1-7.69,0Z"/><polygon class="cls-3" points="50.38 50.38 53.05 66.77 66.77 53.05 50.38 50.38"/></g></g></svg>