<svg xmlns="http://www.w3.org/2000/svg" xmlns:xlink="http://www.w3.org/1999/xlink" viewBox="0 0 210.4 210.4"><defs><style>.cls-1,.cls-2,.cls-3{stroke-miterlimit:10;}.cls-1,.cls-2{opacity:0.39;}.cls-1{fill:url(#New_Gradient_Swatch_copy);stroke:url(#New_Gradient_Swatch);}.cls-2{fill:url(#New_Gradient_Swatch_copy-2);stroke:url(#New_Gradient_Swatch-2);}.cls-3{fill:none;stroke:url(#linear-gradient);}</style><linearGradient id="New_Gradient_Swatch_copy" x1="89.95" y1="128.41" x2="101.95" y2="128.41" gradientUnits="userSpaceOnUse"><stop offset="0" stop-color="#008a94"/><stop offset="0.17" stop-color="#028f92"/><stop offset="0.38" stop-color="#089e8c"/><stop offset="0.61" stop-color="#12b783"/><stop offset="0.86" stop-color="#21d976"/><stop offset="0.97" stop-color="#28eb6f"/></linearGradient><linearGradient id="New_Gradient_Swatch" x1="89.31" y1="128.47" x2="102.73" y2="128.47" gradientUnits="userSpaceOnUse"><stop offset="0" stop-color="#008a94"/><stop offset="0.17" stop-color="#028f92" stop-opacity="0.84"/><stop offset="0.38" stop-color="#089e8c" stop-opacity="0.64"/><stop offset="0.61" stop-color="#12b783" stop-opacity="0.43"/><stop offset="0.86" stop-color="#21d976" stop-opacity="0.2"/><stop offset="0.97" stop-color="#28eb6f" stop-opacity="0.1"/></linearGradient><linearGradient id="New_Gradient_Swatch_copy-2" x1="108.5" y1="128.39" x2="120.51" y2="128.39" xlink:href="#New_Gradient_Swatch_copy"/><linearGradient id="New_Gradient_Swatch-2" x1="107.72" y1="128.46" x2="121.15" y2="128.46" xlink:href="#New_Gradient_Swatch"/><linearGradient id="linear-gradient" x1="1144.04" y1="8408.8" x2="1222.36" y2="8213.46" gradientTransform="matrix(-1, 0, 0, 1, 1288.4, -8205.93)" xlink:href="#New_Gradient_Swatch_copy"/></defs><title>offer_cet</title><g id="Layer_2" data-name="Layer 2"><g id="CET"><polygon class="cls-1" points="92.05 122.31 101.95 129.08 96.55 134.51 89.94 124.51 92.05 122.31"/><polygon class="cls-2" points="108.5 129.08 113.88 134.48 120.51 124.51 118.41 122.31 108.5 129.08"/><path d="M170.46,129.85l-8.67-2.48a.88.88,0,0,1-.64-.84v-2.89a15.78,15.78,0,0,0,2-1.65,15.45,15.45,0,0,0,4.73-11.17v-4l.84-1.68a13.39,13.39,0,0,0,1.41-6V88.36a2.1,2.1,0,0,0-2.1-2.1h-20.2A13.34,13.34,0,0,0,134.5,99.59v.13a11.14,11.14,0,0,0,1.17,5l1.08,2.15v3.43a16.38,16.38,0,0,0,6.73,13.25v3c0,.47,0,.66-1.73,1.16l-4.23,1.21-12.24-4.45a2.1,2.1,0,0,0-.57-1.61l-3.91-4.11v-6.9c.41-.34.82-.69,1.22-1.06a24.64,24.64,0,0,0,7.76-17.91V87.34A24.27,24.27,0,0,0,132,77.14V54.69a2.1,2.1,0,0,0-2.1-2.1H98.49A20.08,20.08,0,0,0,78.43,72.65v4.49a24.27,24.27,0,0,0,2.24,10.21v4.74a25.66,25.66,0,0,0,9,19.58v7.06l-3.91,4.11a2.1,2.1,0,0,0-.57,1.61l-12.92,4.7a11,11,0,0,0-2.6,1.36l-2-1c6-2.63,8-6.33,8-6.51a2.1,2.1,0,0,0,0-1.88c-1.51-3-1.7-8.58-1.84-13,0-1.48-.1-2.89-.18-4.14-.72-10.07-8.37-17.67-17.81-17.67S38.74,93.86,38,103.93c-.09,1.25-.14,2.65-.18,4.14-.15,4.46-.33,10-1.84,13A2.1,2.1,0,0,0,36,123c.09.18,2,3.87,8.05,6.5l-5.63,2.82a8.79,8.79,0,0,0-4.88,7.9v15.51a2.1,2.1,0,0,0,4.2,0V140.2a4.61,4.61,0,0,1,2.56-4.15l7-3.51,2.44,2.32a8.83,8.83,0,0,0,12.17,0l2.44-2.32,2.29,1.14A11.06,11.06,0,0,0,65,139.55v16.16a2.1,2.1,0,1,0,4.2,0V139.55a6.9,6.9,0,0,1,4.53-6.47l13.62-5L93,136.64a4.33,4.33,0,0,0,3.19,1.91l.43,0a4.33,4.33,0,0,0,3.07-1.27l3.46-3.46v21.87a2.1,2.1,0,0,0,4.2,0V133.84l3.46,3.46a4.33,4.33,0,0,0,3.07,1.27l.43,0a4.33,4.33,0,0,0,3.19-1.91l5.67-8.5,13.62,5a6.9,6.9,0,0,1,4.53,6.47v16.16a2.1,2.1,0,1,0,4.2,0V139.55a11.1,11.1,0,0,0-3.11-7.68l.52-.15a11.51,11.51,0,0,0,2-.71l5.36,5.36v19.33a2.1,2.1,0,1,0,4.2,0V136.38l5.32-5.32a5,5,0,0,0,.89.35l8.67,2.48a4.66,4.66,0,0,1,3.36,4.46v17.37a2.1,2.1,0,1,0,4.2,0V138.34A8.87,8.87,0,0,0,170.46,129.85ZM47,126.14a15.09,15.09,0,0,1-6.74-4.33,23.14,23.14,0,0,0,1.2-5A15.66,15.66,0,0,0,47,123.62Zm12,5.68a4.63,4.63,0,0,1-6.39,0l-2-1.86a4.34,4.34,0,0,0,.51-2.05v-2.24a15.61,15.61,0,0,0,9.27,0v2.24A4.34,4.34,0,0,0,61,130Zm-3.19-9.64a11.38,11.38,0,0,1-11.37-11.37A2.09,2.09,0,0,0,42,108.74l0-.54c0-1.44.09-2.81.17-4a15.59,15.59,0,0,1,4.24-9.79,13,13,0,0,1,18.75,0,15.59,15.59,0,0,1,4.24,9.79c.08,1.17.13,2.53.18,4v.37A18.87,18.87,0,0,0,59.28,101a26.35,26.35,0,0,0-8-1.27,2.1,2.1,0,0,0-1.45.64L46,104.3a2.1,2.1,0,0,0,3,2.91l3.15-3.27c2.71.13,11.45,1.15,14.84,8.63A11.34,11.34,0,0,1,55.84,122.18Zm8.83,4v-2.5a15.53,15.53,0,0,0,5.54-6.84,23.11,23.11,0,0,0,1.2,5A15.17,15.17,0,0,1,64.67,126.15Zm20.2-34.06V86.87a2.1,2.1,0,0,0-.21-.91,20.14,20.14,0,0,1-2-8.82V72.65A15.88,15.88,0,0,1,98.49,56.79h29.33V77.14a20.14,20.14,0,0,1-2,8.82,2.1,2.1,0,0,0-.21.91v6a20.16,20.16,0,0,1-6.44,14.85,20.9,20.9,0,0,1-1.61,1.36l0,0a20.19,20.19,0,0,1-13.62,4.06C93.22,112.47,84.88,103.21,84.88,92.08ZM96.7,134.33a.13.13,0,0,1-.12,0,.13.13,0,0,1-.11-.06l-6.53-9.79,2.1-2.21,9.91,6.77Zm8.53-8.1-11.37-7.77v-3.92a23.64,23.64,0,0,0,9.74,2.81q.83.05,1.65.05a24.32,24.32,0,0,0,11.35-2.78v3.84Zm8.75,8.08a.13.13,0,0,1-.11.06.13.13,0,0,1-.12,0l-5.25-5.25,9.91-6.77,2.1,2.21Zm38.34-1.77-4.76-4.76a5.76,5.76,0,0,0,.13-1.25v-.89a14.72,14.72,0,0,0,4.16.73h.48a15.6,15.6,0,0,0,4.63-.7v.85a5,5,0,0,0,.15,1.22ZM160.24,119a11.28,11.28,0,0,1-8.27,3.2c-6.08-.18-11-5.53-11-11.93v-3.93a2.1,2.1,0,0,0-.22-.94l-1.3-2.59a6.92,6.92,0,0,1-.73-3.08v-.13a9.14,9.14,0,0,1,9.13-9.13h18.11v8.72a9.17,9.17,0,0,1-1,4.08l-1.06,2.12a2.1,2.1,0,0,0-.22.94v4.49A11.28,11.28,0,0,1,160.24,119Z"/><circle class="cls-3" cx="105.2" cy="105.2" r="104.7"/></g></g></svg>