<svg xmlns="http://www.w3.org/2000/svg" xmlns:xlink="http://www.w3.org/1999/xlink" viewBox="0 0 210.4 210.4"><defs><style>.cls-1,.cls-3{opacity:0.39;}.cls-1{fill:url(#New_Gradient_Swatch_copy);}.cls-2{fill:none;stroke-miterlimit:10;stroke:url(#linear-gradient);}.cls-3{fill:url(#New_Gradient_Swatch_copy-2);}</style><linearGradient id="New_Gradient_Swatch_copy" x1="61.16" y1="96.65" x2="166.34" y2="96.65" gradientUnits="userSpaceOnUse"><stop offset="0" stop-color="#008a94"/><stop offset="0.17" stop-color="#028f92"/><stop offset="0.38" stop-color="#089e8c"/><stop offset="0.61" stop-color="#12b783"/><stop offset="0.86" stop-color="#21d976"/><stop offset="0.97" stop-color="#28eb6f"/></linearGradient><linearGradient id="linear-gradient" x1="64.04" y1="8408.8" x2="142.36" y2="8213.46" gradientTransform="matrix(-1, 0, 0, 1, 208.4, -8205.93)" xlink:href="#New_Gradient_Swatch_copy"/><linearGradient id="New_Gradient_Swatch_copy-2" x1="44.09" y1="149.69" x2="77.36" y2="149.69" xlink:href="#New_Gradient_Swatch_copy"/></defs><title>offer_gis</title><g id="Layer_2" data-name="Layer 2"><g id="GIS"><path d="M58.07,140.17a2.59,2.59,0,1,0,.76,1.83A2.61,2.61,0,0,0,58.07,140.17Z"/><path d="M139.13,95.05a2.59,2.59,0,1,0,.76,1.83A2.61,2.61,0,0,0,139.13,95.05Z"/><path d="M113.75,52.6a44,44,0,1,0,44,44A44.1,44.1,0,0,0,113.75,52.6Zm0,5.18a38.8,38.8,0,0,1,29.81,14l-2.85,2.85a7.77,7.77,0,0,0-10.58,9.86l-15,13.48a7.76,7.76,0,0,0-7.53,1.24l-12.3-8.09a7.77,7.77,0,1,0-15.21,1.1L74.9,95.75A38.91,38.91,0,0,1,113.75,57.78ZM140,81.6A2.59,2.59,0,1,1,137.36,79,2.59,2.59,0,0,1,140,81.6ZM85,122.72a38.74,38.74,0,0,1-9.73-20.9L83,96.45a7.75,7.75,0,0,0,2,1Zm2.59-30a2.59,2.59,0,1,1,2.59-2.59A2.59,2.59,0,0,1,87.55,92.74Zm22.28,42.57a38.66,38.66,0,0,1-19.69-7.82v-30a7.78,7.78,0,0,0,2.79-1.73l11.9,7.82a7.77,7.77,0,0,0,5,9Zm2.59-27.49a2.59,2.59,0,1,1,2.59-2.59A2.59,2.59,0,0,1,112.42,107.82Zm27.46,17.57v-18a2.59,2.59,0,0,0-5.18,0v21.93A38.62,38.62,0,0,1,115,135.49V112.56a7.77,7.77,0,0,0,4.1-11.28l14.41-12.92a7.77,7.77,0,0,0,10.85-10.11L146.65,76a38.8,38.8,0,0,1-6.76,49.41Z"/><path d="M65,136.88,68.87,133a58.54,58.54,0,0,0,8.5,8.5l-23.1,23.1a6,6,0,0,1-8.5-8.5l4.92-4.92M47,147.55l-4.92,4.92a11.2,11.2,0,0,0,8,19.06,11,11,0,0,0,7.83-3.23l23.65-23.65a57.8,57.8,0,0,0,78.7-82.3l10.5-10.5a2.59,2.59,0,0,0-3.66-3.66L157,58.32q-1.15-1.29-2.38-2.53A57.78,57.78,0,0,0,56,96.65a58.36,58.36,0,0,0,1.12,11.42L40,119.91a2.59,2.59,0,1,0,2.95,4.26l15.5-10.72a57.1,57.1,0,0,0,7.31,15.39l-4.39,4.39m105-36.57A52.6,52.6,0,1,1,113.75,44,52.66,52.66,0,0,1,166.35,96.65Z"/><path class="cls-1" d="M113.75,44.06a52.59,52.59,0,1,0,52.59,52.59A52.59,52.59,0,0,0,113.75,44.06Zm0,96.63a44,44,0,1,1,44-44A44,44,0,0,1,113.75,140.69Z"/><circle class="cls-2" cx="105.2" cy="105.2" r="104.7"/><path class="cls-3" d="M77.36,141.53,54.3,164.6a6,6,0,0,1-8.45,0h0a6,6,0,0,1,0-8.49l23-23.08c1.27,1.52,2.49,2.94,3.87,4.32S75.82,140.25,77.36,141.53Z"/></g></g></svg>