<svg xmlns="http://www.w3.org/2000/svg" xmlns:xlink="http://www.w3.org/1999/xlink" viewBox="0 0 210.4 210.4"><defs><style>.cls-1,.cls-3{stroke-miterlimit:10;}.cls-1{opacity:0.39;fill:url(#New_Gradient_Swatch_copy);stroke:url(#New_Gradient_Swatch);}.cls-2{fill:#010002;}.cls-3{fill:none;stroke:url(#linear-gradient);}</style><linearGradient id="New_Gradient_Swatch_copy" x1="72.02" y1="99.61" x2="142.5" y2="99.61" gradientTransform="translate(178.27 -28.39) rotate(76.14)" gradientUnits="userSpaceOnUse"><stop offset="0" stop-color="#008a94"/><stop offset="0.17" stop-color="#028f92"/><stop offset="0.38" stop-color="#089e8c"/><stop offset="0.61" stop-color="#12b783"/><stop offset="0.86" stop-color="#21d976"/><stop offset="0.97" stop-color="#28eb6f"/></linearGradient><linearGradient id="New_Gradient_Swatch" x1="71.42" y1="99.61" x2="143.1" y2="99.61" gradientTransform="translate(178.27 -28.39) rotate(76.14)" gradientUnits="userSpaceOnUse"><stop offset="0" stop-color="#008a94"/><stop offset="0.17" stop-color="#028f92" stop-opacity="0.84"/><stop offset="0.38" stop-color="#089e8c" stop-opacity="0.64"/><stop offset="0.61" stop-color="#12b783" stop-opacity="0.43"/><stop offset="0.86" stop-color="#21d976" stop-opacity="0.2"/><stop offset="0.97" stop-color="#28eb6f" stop-opacity="0.1"/></linearGradient><linearGradient id="linear-gradient" x1="1684.04" y1="8408.8" x2="1762.36" y2="8213.46" gradientTransform="matrix(-1, 0, 0, 1, 1828.4, -8205.93)" xlink:href="#New_Gradient_Swatch_copy"/></defs><title>offer_mobile</title><g id="Layer_2" data-name="Layer 2"><g id="mobile"><rect class="cls-1" x="63.43" y="74.13" width="87.66" height="50.96" transform="translate(-15.14 179.88) rotate(-76.14)"/><path class="cls-2" d="M142.62,46.7,99.86,36.15A14,14,0,0,0,82.93,46.29L58.61,144.86a14,14,0,0,0,10.27,16.85l42.76,10.55a14,14,0,0,0,16.93-10.13l24.32-98.57A14,14,0,0,0,142.62,46.7ZM124.08,161a9.33,9.33,0,0,1-11.32,6.75L70,157.21A9.33,9.33,0,0,1,63.1,146L87.43,47.4h0a9.33,9.33,0,0,1,11.32-6.75L141.51,51.2a9.33,9.33,0,0,1,6.89,11.24ZM143.84,61,92.12,48.26a1.16,1.16,0,0,0-1.4.85L69.17,136.46a1.16,1.16,0,0,0,.85,1.4l51.72,12.76a1.16,1.16,0,0,0,1.4-.85l21.56-87.36A1.16,1.16,0,0,0,143.84,61ZM121.17,148.1,71.69,135.89l21-85.11L142.16,63Zm-25.75-2a7.08,7.08,0,1,0,5.17,8.57A7.09,7.09,0,0,0,95.41,146.12Zm-2.84,11.49a4.76,4.76,0,1,1,5.76-3.48A4.77,4.77,0,0,1,92.58,157.61ZM111.64,48.39a1,1,0,0,1,1.2-.58L125.71,51a.87.87,0,1,1-.41,1.66l-12.87-3.18A1,1,0,0,1,111.64,48.39Z"/><circle class="cls-3" cx="105.2" cy="105.2" r="104.7"/></g></g></svg>