<?xml version="1.0" encoding="UTF-8"?>
<svg width="81px" height="81px" viewBox="0 0 81 81" version="1.1" xmlns="http://www.w3.org/2000/svg" xmlns:xlink="http://www.w3.org/1999/xlink">
    <!-- Generator: Sketch 48.2 (47327) - http://www.bohemiancoding.com/sketch -->
    <title>Facebook</title>
    <desc>Created with Sketch.</desc>
    <defs></defs>
    <g id="Artboard" stroke="none" stroke-width="1" fill="none" fill-rule="evenodd" transform="translate(-129.000000, -168.000000)">
        <g id="Facebook" transform="translate(130.000000, 169.000000)" fill="#FFFFFF">
            <path d="M39.466,78.931 C17.704,78.931 0,61.227 0,39.466 C0,17.704 17.704,0 39.466,0 C61.228,0 78.932,17.704 78.932,39.466 C78.932,61.227 61.228,78.931 39.466,78.931 L39.466,78.931 Z M39.466,3 C19.358,3 3,19.358 3,39.466 C3,59.573 19.358,75.931 39.466,75.931 C59.573,75.931 75.932,59.573 75.932,39.466 C75.932,19.358 59.573,3 39.466,3 L39.466,3 Z" id="Facebook-Circle"></path>
            <path d="M57.711,55.685 C57.711,56.804 56.804,57.711 55.685,57.711 L46.33,57.711 L46.33,43.495 L51.102,43.495 L51.817,37.954 L46.33,37.954 L46.33,34.417 C46.33,32.813 46.776,31.72 49.076,31.72 L52.01,31.718 L52.01,26.763 C51.503,26.695 49.761,26.545 47.735,26.545 C43.505,26.545 40.609,29.127 40.609,33.868 L40.609,37.954 L35.825,37.954 L35.825,43.495 L40.609,43.495 L40.609,57.711 L23.026,57.711 C21.907,57.711 21,56.804 21,55.685 L21,23.026 C21,21.907 21.907,21 23.026,21 L55.685,21 C56.804,21 57.711,21.907 57.711,23.026 L57.711,55.685"></path>
        </g>
    </g>
</svg>