<?xml version="1.0" encoding="UTF-8"?>
<svg width="81px" height="81px" viewBox="0 0 81 81" version="1.1" xmlns="http://www.w3.org/2000/svg" xmlns:xlink="http://www.w3.org/1999/xlink">
    <!-- Generator: Sketch 48.2 (47327) - http://www.bohemiancoding.com/sketch -->
    <title>linkedin</title>
    <desc>Created with Sketch.</desc>
    <defs></defs>
    <g id="Artboard" stroke="none" stroke-width="1" fill="none" fill-rule="evenodd" transform="translate(-343.000000, -168.000000)">
        <g id="Linkedin" transform="translate(344.000000, 169.000000)" fill="#FFFFFF">
            <path d="M39.465,78.931 C17.704,78.931 0,61.227 0,39.466 C0,17.704 17.704,0 39.465,0 C61.227,0 78.931,17.704 78.931,39.466 C78.931,61.227 61.227,78.931 39.465,78.931 L39.465,78.931 Z M39.465,3 C19.358,3 3,19.358 3,39.466 C3,59.573 19.358,75.931 39.465,75.931 C59.573,75.931 75.931,59.573 75.931,39.466 C75.931,19.358 59.573,3 39.465,3 L39.465,3 Z" id="Linkedin-Cirlce"></path>
            <path d="M22.93,33.754 L30.12,33.754 L30.12,56.536 L22.93,56.536 L22.93,33.754 Z M49.765,33.535 C54.875,33.535 58.89,36.812 58.89,43.869 L58.89,56.536 L50.737,56.536 L50.737,44.747 C50.737,41.661 49.462,39.554 46.657,39.554 C44.512,39.554 43.319,40.976 42.764,42.346 C42.556,42.838 42.588,43.523 42.588,44.208 L42.588,56.536 L34.511,56.536 C34.511,56.536 34.615,35.653 34.511,33.754 L42.588,33.754 L42.588,37.33 C43.065,35.766 45.646,33.535 49.765,33.535 Z M26.392,23 C29.045,23 30.676,24.701 30.728,26.949 C30.728,29.156 29.045,30.904 26.342,30.904 L26.29,30.904 C23.688,30.904 22,29.163 22,26.955 C22,24.705 23.737,23 26.392,23 Z"></path>
        </g>
    </g>
</svg>